<svg xmlns="http://www.w3.org/2000/svg" width="120" height="83" viewBox="0 0 120 83">
  <g id="Group_2544" data-name="Group 2544" transform="translate(-736 -940)">
    <g id="Group_2543" data-name="Group 2543" transform="translate(736 940)">
      <g id="Group_2539" data-name="Group 2539" transform="translate(34.393 0)">
        <g id="Group_2536" data-name="Group 2536" transform="translate(0 7.411)">
          <path id="Path_11853" data-name="Path 11853" d="M230.705,187.268a11.846,11.846,0,0,1-5.037-6.631,36,36,0,0,1-1.36-10.723h12q0,5.563,1.041,8.062a4.625,4.625,0,0,0,7.6.915,9.125,9.125,0,0,0,1.4-4.37q.277-2.779.278-7.862a26.692,26.692,0,0,0-1.079-8.779,4.281,4.281,0,0,0-4.439-2.9q-4.317,0-5.516,5.8H224.949l.878-36.538h29.756v10.565H235.905l-.638,14.217a8.36,8.36,0,0,1,3.837-2.263,18.011,18.011,0,0,1,5.761-.912A11.157,11.157,0,0,1,254.9,151.17q3.4,5.32,3.4,14.934a49.616,49.616,0,0,1-1.36,12.666,14.362,14.362,0,0,1-5.156,7.943q-3.8,2.9-10.838,2.9Q234.388,189.614,230.705,187.268Z" transform="translate(-224.309 -124.242)" fill="#fda14d"/>
        </g>
        <g id="Group_2538" data-name="Group 2538" transform="translate(4.96)">
          <g id="Group_2537" data-name="Group 2537">
            <path id="Path_11854" data-name="Path 11854" d="M244.24,188.975c-4.593,0-8.26-.853-10.9-2.537h0a13.09,13.09,0,0,1-5.545-7.295,37.333,37.333,0,0,1-1.415-11.09,1.225,1.225,0,0,1,1.228-1.22h12a1.224,1.224,0,0,1,1.226,1.22c0,3.531.319,6.087.947,7.6a2.782,2.782,0,0,0,2.943,1.749,2.724,2.724,0,0,0,2.516-1.07,8.01,8.01,0,0,0,1.185-3.793c.18-1.811.273-4.417.273-7.743a25.816,25.816,0,0,0-1-8.357,3.07,3.07,0,0,0-3.291-2.1c-1.422,0-3.42.5-4.315,4.827a1.225,1.225,0,0,1-1.2.974H228.243a1.238,1.238,0,0,1-.878-.367,1.224,1.224,0,0,1-.35-.881l.88-36.548a1.22,1.22,0,0,1,1.226-1.189h29.756a1.222,1.222,0,0,1,1.226,1.217v10.568a1.224,1.224,0,0,1-1.226,1.22h-18.5l-.472,10.459a14.669,14.669,0,0,1,2.1-.877,19.341,19.341,0,0,1,6.154-.977,12.365,12.365,0,0,1,11.073,5.889c2.382,3.731,3.59,8.974,3.59,15.59a50.956,50.956,0,0,1-1.4,12.986,15.591,15.591,0,0,1-5.6,8.593C253.083,187.915,249.185,188.975,244.24,188.975Zm-15.4-19.7a33.159,33.159,0,0,0,1.288,9.141,10.565,10.565,0,0,0,4.531,5.973h0c2.24,1.427,5.461,2.151,9.577,2.151,4.391,0,7.785-.891,10.09-2.649a13.062,13.062,0,0,0,4.72-7.292,48.693,48.693,0,0,0,1.319-12.355c0-6.146-1.082-10.949-3.209-14.285a9.919,9.919,0,0,0-9-4.758,16.919,16.919,0,0,0-5.37.85,7.259,7.259,0,0,0-3.283,1.884,1.228,1.228,0,0,1-2.171-.831l.64-14.22a1.222,1.222,0,0,1,1.226-1.165h18.448v-8.129H230.32L229.5,157.7h8.409c1.3-4.765,4.209-5.8,6.488-5.8a5.489,5.489,0,0,1,5.591,3.7c.779,2.085,1.156,5.093,1.156,9.2,0,3.407-.1,6.092-.285,7.986a10.173,10.173,0,0,1-1.617,4.948,5.848,5.848,0,0,1-9.74-1.151,21.135,21.135,0,0,1-1.118-7.307Z" transform="translate(-226.377 -121.152)" fill="#2b3d5f"/>
          </g>
        </g>
      </g>
      <g id="Group_2540" data-name="Group 2540" transform="translate(80.408 19.316)">
        <circle id="Ellipse_39" data-name="Ellipse 39" cx="1.363" cy="1.363" r="1.363" transform="translate(9.898 2.654)" fill="#ffebd9"/>
        <circle id="Ellipse_40" data-name="Ellipse 40" cx="1.875" cy="1.875" r="1.875" transform="translate(24.752 2.142)" fill="#ffebd9"/>
        <path id="Path_11855" data-name="Path 11855" d="M247.073,147.213a3.578,3.578,0,1,1-3.578,3.578A3.578,3.578,0,0,1,247.073,147.213Z" transform="translate(-243.495 -104.481)" fill="#ffebd9"/>
        <path id="Path_11856" data-name="Path 11856" d="M253.482,147.213a3.578,3.578,0,1,1-3.581,3.578A3.578,3.578,0,0,1,253.482,147.213Z" transform="translate(-234.537 -104.481)" fill="#ffebd9"/>
        <path id="Path_11857" data-name="Path 11857" d="M260.881,146.5a5.284,5.284,0,1,1-5.284,5.284A5.283,5.283,0,0,1,260.881,146.5Z" transform="translate(-226.572 -105.476)" fill="#ffebd9"/>
        <circle id="Ellipse_41" data-name="Ellipse 41" cx="3.792" cy="3.792" r="3.792" transform="translate(7.469 27.152)" fill="#ffebd9"/>
        <path id="Path_11858" data-name="Path 11858" d="M257.678,140.1a5.282,5.282,0,1,1-5.284,5.281A5.282,5.282,0,0,1,257.678,140.1Z" transform="translate(-231.051 -114.434)" fill="#ffebd9"/>
        <circle id="Ellipse_42" data-name="Ellipse 42" cx="1.576" cy="1.576" r="1.576" transform="translate(2.002 14.003)" fill="#ffebd9"/>
        <circle id="Ellipse_43" data-name="Ellipse 43" cx="1.576" cy="1.576" r="1.576" transform="translate(17.368 14.003)" fill="#ffebd9"/>
        <path id="Path_11859" data-name="Path 11859" d="M259.067,134.986a2.173,2.173,0,1,1-2.173,2.173A2.171,2.171,0,0,1,259.067,134.986Z" transform="translate(-224.758 -121.579)" fill="#ffebd9"/>
        <path id="Path_11860" data-name="Path 11860" d="M254.721,129.4a.213.213,0,1,1-.214.213A.214.214,0,0,1,254.721,129.4Z" transform="translate(-228.095 -129.396)" fill="#ffebd9"/>
      </g>
      <g id="Group_2541" data-name="Group 2541" transform="translate(0 33.525)">
        <path id="Path_11861" data-name="Path 11861" d="M219.3,136.139a1.008,1.008,0,1,0,1.01,1.007A1.009,1.009,0,0,0,219.3,136.139Z" transform="translate(-198.334 -134.175)" fill="#ffebd9"/>
        <circle id="Ellipse_44" data-name="Ellipse 44" cx="1.387" cy="1.387" r="1.387" transform="translate(8.207 1.585)" fill="#ffebd9"/>
        <path id="Path_11862" data-name="Path 11862" d="M222.624,148.5a2.648,2.648,0,1,0,2.65,2.648A2.648,2.648,0,0,0,222.624,148.5Z" transform="translate(-195.975 -116.885)" fill="#ffebd9"/>
        <path id="Path_11863" data-name="Path 11863" d="M217.885,148.5a2.648,2.648,0,1,0,2.648,2.648A2.649,2.649,0,0,0,217.885,148.5Z" transform="translate(-202.605 -116.885)" fill="#ffebd9"/>
        <circle id="Ellipse_45" data-name="Ellipse 45" cx="3.91" cy="3.91" r="3.91" transform="translate(0 30.358)" fill="#ffebd9"/>
        <path id="Path_11864" data-name="Path 11864" d="M220.346,143.7a2.806,2.806,0,1,0,2.806,2.806A2.805,2.805,0,0,0,220.346,143.7Z" transform="translate(-199.382 -123.605)" fill="#ffebd9"/>
        <circle id="Ellipse_46" data-name="Ellipse 46" cx="3.91" cy="3.91" r="3.91" transform="translate(5.685 18.988)" fill="#ffebd9"/>
        <circle id="Ellipse_47" data-name="Ellipse 47" cx="1.167" cy="1.167" r="1.167" transform="translate(25.483 10.361)" fill="#ffebd9"/>
        <circle id="Ellipse_48" data-name="Ellipse 48" cx="1.167" cy="1.167" r="1.167" transform="translate(14.113 10.361)" fill="#ffebd9"/>
        <path id="Path_11865" data-name="Path 11865" d="M212.536,139.456a1.608,1.608,0,1,0,1.607,1.609A1.609,1.609,0,0,0,212.536,139.456Z" transform="translate(-208.626 -129.537)" fill="#ffebd9"/>
        <circle id="Ellipse_49" data-name="Ellipse 49" cx="0.158" cy="0.158" r="0.158" transform="translate(9.437)" fill="#ffebd9"/>
      </g>
      <g id="Group_2542" data-name="Group 2542" transform="translate(22.979 80.544)">
        <line id="Line_7" data-name="Line 7" x2="66.273" transform="translate(1.225 1.228)" fill="#ffe100"/>
        <path id="Path_11866" data-name="Path 11866" d="M287.047,157.381H220.776a1.228,1.228,0,0,1,0-2.456h66.271a1.228,1.228,0,1,1,0,2.456Z" transform="translate(-219.55 -154.925)" fill="#2b3d5f"/>
      </g>
    </g>
  </g>
</svg>
