<svg xmlns="http://www.w3.org/2000/svg" width="100" height="100" viewBox="0 0 100 100">
  <g id="Group_2488" data-name="Group 2488" transform="translate(-219 -2222)">
    <rect id="Rectangle_7" data-name="Rectangle 7" width="100" height="100" transform="translate(219 2222)" fill="#ecf0ff" opacity="0"/>
    <g id="Group_2487" data-name="Group 2487" transform="translate(-2700.002 -90.925)">
      <g id="Online_LEarning" data-name="Online LEarning" transform="translate(2937 2331.976)">
        <path id="Path_11773" data-name="Path 11773" d="M60.671,6c.027-.037-53.328-.03-53.337,0A5.334,5.334,0,0,0,2,11.335v38.4a5.334,5.334,0,0,0,5.334,5.334H26.45l-.661,8.449a2.464,2.464,0,0,1-2.454,2.219H21.2a1.067,1.067,0,1,0,0,2.133H46.8a1.067,1.067,0,1,0,0-2.133H44.67a2.454,2.454,0,0,1-2.454-2.208l-.661-8.459H60.671A5.334,5.334,0,0,0,66,49.738v-38.4A5.334,5.334,0,0,0,60.671,6Zm3.2,5.334V44.4H4.133V11.335s-.44-1.9,1.074-2.61c0,0,56.614-.38,56.643-.328C63.781,8.591,63.871,11.335,63.871,11.335Zm-23.1,54.4H27.218c.821-1.291.651-1.472,1.376-10.667H39.421C40.061,63.435,39.891,64.342,40.776,65.739Zm23.1-16a3.2,3.2,0,0,1-3.2,3.2H7.334a3.2,3.2,0,0,1-3.2-3.2v-3.2H63.871Z" transform="translate(-2 -5.976)" fill="#2b3d5f"/>
        <path id="Path_11774" data-name="Path 11774" d="M31.067,48.133H33.2A1.067,1.067,0,1,0,33.2,46H31.067a1.067,1.067,0,1,0,0,2.133Z" transform="translate(-0.131 -3.305)" fill="#2b3d5f"/>
      </g>
      <g id="Group_2487-2" data-name="Group 2487" transform="translate(2957.403 2340.536)">
        <path id="Path_11775" data-name="Path 11775" d="M56.718,53.516c2.688-2.133,2.4-4.8,2.4-7.115a6.4,6.4,0,0,0-12.8,0c0,2.39-.288,4.96,2.4,7.115-2.953,1.083-5,3.331-6.667,6.155a11.538,11.538,0,0,0-.793,4.864c-.076.685.793,1.067.793,1.067a1.067,1.067,0,0,0,1.067-1.067,9.6,9.6,0,0,1,19.2,0,1.067,1.067,0,0,0,2.133,0,11.734,11.734,0,0,0-7.734-11.019ZM48.45,48.534V46.4a4.267,4.267,0,1,1,8.534,0v2.133a4.267,4.267,0,1,1-8.534,0Z" transform="translate(-41.252 -40)" fill="#2b3d5f"/>
        <path id="Path_11777" data-name="Path 11777" d="M46,61.067V63.2a1.067,1.067,0,0,0,2.133,0V61.067a1.067,1.067,0,1,0-2.133,0Z" transform="translate(-40.936 -38.665)" fill="#2b3d5f"/>
        <path id="Path_11776" data-name="Path 11776" d="M56,61.067V63.2a1.067,1.067,0,0,0,2.133,0V61.067a1.067,1.067,0,1,0-2.133,0Z" transform="translate(-40.268 -38.665)" fill="#2b3d5f"/>
      </g>
    </g>
  </g>
</svg>
