<svg xmlns="http://www.w3.org/2000/svg" width="16" height="16" viewBox="0 0 16 16">
  <g id="Group_2483" data-name="Group 2483" transform="translate(-136.001 -696)">
    <path id="Combined-Shape" d="M8,16c-2.588,0-2.9-.01-3.943-.057a5.412,5.412,0,0,1-1.812-.337,3.023,3.023,0,0,1-1.122-.73,3.015,3.015,0,0,1-.73-1.121,5.388,5.388,0,0,1-.336-1.812C.01,10.923,0,10.616,0,8S.01,5.075.056,4.056A5.4,5.4,0,0,1,.392,2.244a3.006,3.006,0,0,1,.73-1.122A3.043,3.043,0,0,1,2.244.391,5.428,5.428,0,0,1,4.057.055C4.962.014,5.3,0,7.125,0c.084,0,.174,0,.254,0H8c2.629,0,2.934.01,3.943.056a5.416,5.416,0,0,1,1.812.336,3.014,3.014,0,0,1,1.121.73,3.043,3.043,0,0,1,.731,1.122,5.423,5.423,0,0,1,.336,1.812C15.99,5.078,16,5.385,16,8s-.01,2.923-.056,3.942a5.423,5.423,0,0,1-.336,1.812,3.236,3.236,0,0,1-1.852,1.851,5.365,5.365,0,0,1-1.812.337C10.9,15.99,10.588,16,8,16ZM8,2.991A5.011,5.011,0,1,0,13.011,8,5.017,5.017,0,0,0,8,2.991Zm5.209-1.369,0,0a1.171,1.171,0,1,0,1.174,1.17A1.171,1.171,0,0,0,13.207,1.624Z" transform="translate(136.001 696)" fill="#fff"/>
    <path id="Shape" d="M3.395,0A3.395,3.395,0,1,1,0,3.395,3.395,3.395,0,0,1,3.395,0Z" transform="translate(140.563 700.565)" fill="#fff"/>
  </g>
</svg>
