<svg xmlns="http://www.w3.org/2000/svg" width="100" height="100" viewBox="0 0 100 100">
  <g id="Group_2633" data-name="Group 2633" transform="translate(-265 -862)">
    <rect id="Rectangle_39" data-name="Rectangle 39" width="100" height="100" transform="translate(265 862)" fill="#fff"/>
    <g id="Group_2632" data-name="Group 2632" transform="translate(133.206 767.506)">
      <g id="Group_2614" data-name="Group 2614" transform="translate(164.219 122.729)">
        <path id="Path_11970" data-name="Path 11970" d="M214.746,222.684l-9.224-11.856s.211-2.149,6.166-1.942,14.578-1.4,20.153-1.529a70.464,70.464,0,0,1,12.842,1.063l-9.64,14.265Z" transform="translate(-205.522 -207.344)" fill="#bbbdbf"/>
      </g>
      <g id="Group_2617" data-name="Group 2617" transform="translate(173.035 101.821)">
        <g id="Path_11971" data-name="Path 11971" transform="translate(-246.957 -109.071)" fill="#e1fef7" stroke-miterlimit="10">
          <path d="M 261.8147583007813 145.7026977539063 L 259.3846435546875 144.9824829101563 C 255.7118225097656 143.8938140869141 251.9231567382813 142.7708282470703 248.1532440185547 141.6581726074219 C 249.5587158203125 135.7472381591797 250.4236755371094 129.9028015136719 251.336669921875 123.7335815429688 C 251.9876098632813 119.335075378418 252.6593017578125 114.7964096069336 253.5481567382813 110.2141723632813 C 260.9284057617188 111.4587783813477 268.1949462890625 113.5477066040039 275.6972045898438 116.5816802978516 C 270.1291198730469 126.1953430175781 264.9257507324219 135.6885833740234 261.8147583007813 145.7026977539063 Z" stroke="none"/>
          <path d="M 254.3460388183594 111.3678283691406 C 253.5508728027344 115.6025390625 252.9294738769531 119.8015747070313 252.3258972167969 123.8799896240234 C 251.4569702148438 129.7513122558594 250.6314392089844 135.3295288085938 249.3414916992188 140.96630859375 C 252.8121643066406 141.9913330078125 256.2896118164063 143.0220947265625 259.6688232421875 144.0237121582031 L 261.1585083007813 144.4652099609375 C 264.2132263183594 135.0497741699219 269.0477600097656 126.1063537597656 274.2529296875 117.0820922851563 C 267.5226135253906 114.4338226318359 260.973388671875 112.5539093017578 254.3460388183594 111.3678283691406 M 252.7543334960938 109.0709991455078 C 261.2725830078125 110.4221954345703 269.260009765625 112.8220672607422 277.1378479003906 116.0912475585938 C 271.3198852539063 126.1043090820313 265.6546630859375 136.2360687255859 262.483154296875 146.9437866210938 C 257.3196105957031 145.4138641357422 252.1639404296875 143.8835144042969 246.9570007324219 142.3478546142578 C 249.6321716308594 131.5303649902344 250.4483032226563 120.5744018554688 252.7543334960938 109.0709991455078 Z" stroke="none" fill="#37b899"/>
        </g>
        <path id="Path_11972" data-name="Path 11972" d="M279.733,169.036c4.619,1.323,6.966,5.266,5.383,8.545a8.05,8.05,0,0,1-9.323,4.059c-3.651-1.072-6.244-4.755-5.692-8.3C270.668,169.818,275.111,167.742,279.733,169.036Z" transform="translate(-265.119 -155.973)" fill="#37b899"/>
        <path id="Path_11973" data-name="Path 11973" d="M246.957,250.135q2.079.613,4.143,1.224a4.413,4.413,0,0,0-3.181-5.372C247.631,247.376,247.314,248.758,246.957,250.135Z" transform="translate(-246.957 -216.858)" fill="#006738"/>
        <g id="Group_2616" data-name="Group 2616" transform="translate(6.662 15.779)">
          <g id="Group_2615" data-name="Group 2615" transform="translate(1.513)">
            <path id="Path_11974" data-name="Path 11974" d="M288.157,184.961c-.593-.118-1,.253-1.225,1.1s-.072,1.353.453,1.5a.764.764,0,0,0,.814-.216,8.6,8.6,0,0,0,.987-1.511,3.453,3.453,0,0,1,1.524-1.553,2.816,2.816,0,0,1,1.979-.067,2.2,2.2,0,0,1,1.624,1.5,3.414,3.414,0,0,1-.136,2.288c-.744,1.883-1.973,2.708-3.7,2.5q.187-.814.377-1.626a1.669,1.669,0,0,0,1.938-1.3c.349-.944.134-1.535-.651-1.765a.964.964,0,0,0-.891.124,5.628,5.628,0,0,0-1.08,1.476,4.1,4.1,0,0,1-1.458,1.6,2.122,2.122,0,0,1-1.627.16A2.228,2.228,0,0,1,285.668,188a3.32,3.32,0,0,1-.15-2.34c.439-1.878,1.464-2.674,3.027-2.35Q288.35,184.134,288.157,184.961Z" transform="translate(-285.381 -183.235)" fill="#8bc543"/>
          </g>
          <path id="Path_11975" data-name="Path 11975" d="M280.308,189.25c-.125.514-.25,1.028-.372,1.54q-.828-.221-1.664-.437.166-.772.329-1.546Q279.464,189.028,280.308,189.25Z" transform="translate(-278.272 -187.622)" fill="#8bc543"/>
          <path id="Path_11976" data-name="Path 11976" d="M326.088,202.346q-.311.738-.616,1.475-.809-.246-1.613-.485.283-.746.576-1.492Q325.258,202.093,326.088,202.346Z" transform="translate(-314.159 -197.885)" fill="#8bc543"/>
        </g>
        <path id="Path_11977" data-name="Path 11977" d="M303.555,270.967q.63-2.05,1.348-4.076a4.367,4.367,0,0,0-5.464,2.855Z" transform="translate(-288.273 -233.166)" fill="#006738"/>
        <path id="Path_11978" data-name="Path 11978" d="M362.626,132.467q-3.15-1.295-6.317-2.4c-1.022,2.322.814,5.029,4.139,6.263C361.175,135.042,361.906,133.754,362.626,132.467Z" transform="translate(-332.821 -125.602)" fill="#37b899"/>
        <path id="Path_11979" data-name="Path 11979" d="M271.253,109.071q-.42,2.209-.8,4.387c3.514.637,6.758-.645,7.484-3.093Q274.64,109.609,271.253,109.071Z" transform="translate(-265.456 -109.071)" fill="#006738"/>
        <path id="Path_11980" data-name="Path 11980" d="M286.276,242.225a1.478,1.478,0,0,1,1.044,1.834,1.52,1.52,0,0,1-2.915-.854A1.48,1.48,0,0,1,286.276,242.225Z" transform="translate(-276.398 -213.845)" fill="#006738"/>
        <path id="Path_11981" data-name="Path 11981" d="M315.321,143.336c1.134.324,1.788,1.246,1.481,2.039a2.04,2.04,0,0,1-2.5.868c-1.069-.3-1.749-1.19-1.5-2A1.984,1.984,0,0,1,315.321,143.336Z" transform="translate(-298.754 -135.959)" fill="#006738"/>
      </g>
      <g id="Group_2620" data-name="Group 2620" transform="translate(173.387 99.862)">
        <g id="Path_11982" data-name="Path 11982" transform="translate(-248.611 -99.862)" fill="#e1fef7" stroke-miterlimit="10">
          <path d="M 263.7960205078125 134.8191528320313 L 262.1796264648438 134.5838165283203 C 258.0973815917969 133.9893493652344 253.8855590820313 133.3760223388672 249.6960906982422 132.7723999023438 C 250.2400817871094 126.7234115600586 250.259033203125 120.8178634643555 250.2790832519531 114.583610534668 C 250.2933654785156 110.1347198486328 250.3081207275391 105.544319152832 250.5319671630859 100.8795700073242 C 258.0068664550781 101.0531539916992 265.4973754882813 102.0796508789063 273.3633422851563 104.0082168579102 C 269.2291564941406 114.3275146484375 265.4394836425781 124.4711151123047 263.7960205078125 134.8191528320313 Z" stroke="none"/>
          <path d="M 251.4867858886719 101.9069366455078 C 251.3059692382813 106.2141723632813 251.2923278808594 110.4617080688477 251.279052734375 114.5868530273438 C 251.2599792480469 120.519660949707 251.2418518066406 126.1564788818359 250.7729797363281 131.9173278808594 C 254.6507873535156 132.4768981933594 258.537841796875 133.0429382324219 262.3139343261719 133.5928344726563 L 262.9693603515625 133.6882629394531 C 264.6431579589844 123.9401626586914 268.1466979980469 114.3932342529297 272.0057678222656 104.7105255126953 C 264.960205078125 103.0531005859375 258.2094116210938 102.1307373046875 251.4867858886719 101.9069366455078 M 249.5826416015625 99.86199951171875 C 258.2053527832031 99.97795104980469 266.4542541503906 101.2106475830078 274.7186889648438 103.3162841796875 C 270.397216796875 114.0601577758789 266.2406616210938 124.8993377685547 264.6352233886719 135.9518737792969 C 259.3059387207031 135.1761932373047 253.9832458496094 134.3992309570313 248.6109924316406 133.6264953613281 C 249.7088012695313 122.5375366210938 248.9471435546875 111.5766677856445 249.5826416015625 99.86199951171875 Z" stroke="none" fill="#37b899"/>
        </g>
        <path id="Path_11983" data-name="Path 11983" d="M269.988,154.367c4.763.646,7.648,4.213,6.551,7.684A8.046,8.046,0,0,1,267.9,167.4c-3.767-.537-6.862-3.813-6.823-7.4C261.127,156.438,265.228,153.747,269.988,154.367Z" transform="translate(-258.421 -142.701)" fill="#37b899"/>
        <path id="Path_11984" data-name="Path 11984" d="M248.611,242.866l4.274.617a4.415,4.415,0,0,0-3.918-4.86C248.882,240.038,248.767,241.452,248.611,242.866Z" transform="translate(-248.611 -209.102)" fill="#006738"/>
        <g id="Group_2619" data-name="Group 2619" transform="translate(4.48 14.884)">
          <g id="Group_2618" data-name="Group 2618" transform="translate(1.565)">
            <path id="Path_11985" data-name="Path 11985" d="M279.555,171.522c-.6-.031-.956.395-1.055,1.268s.124,1.348.665,1.418a.766.766,0,0,0,.774-.332,8.445,8.445,0,0,0,.758-1.637,3.465,3.465,0,0,1,1.288-1.754,2.813,2.813,0,0,1,1.947-.349,2.2,2.2,0,0,1,1.824,1.255,3.412,3.412,0,0,1,.193,2.283c-.467,1.971-1.565,2.962-3.309,3q.069-.831.14-1.662a1.669,1.669,0,0,0,1.733-1.562c.21-.983-.086-1.538-.9-1.653a.965.965,0,0,0-.865.25,5.649,5.649,0,0,0-.858,1.615,4.087,4.087,0,0,1-1.215,1.8,2.115,2.115,0,0,1-1.587.39,2.223,2.223,0,0,1-1.566-.968,3.322,3.322,0,0,1-.483-2.3c.164-1.921,1.065-2.856,2.659-2.759C279.652,170.4,279.6,170.96,279.555,171.522Z" transform="translate(-277.021 -169.823)" fill="#e1fef7"/>
          </g>
          <path id="Path_11986" data-name="Path 11986" d="M271.521,178.168q-.075.791-.149,1.577-.847-.1-1.706-.194.051-.787.105-1.577Q270.651,178.068,271.521,178.168Z" transform="translate(-269.666 -176.24)" fill="#e1fef7"/>
          <path id="Path_11987" data-name="Path 11987" d="M318.669,184.44q-.2.775-.4,1.548-.835-.127-1.667-.25.175-.779.357-1.558C317.528,184.266,318.1,184.351,318.669,184.44Z" transform="translate(-306.618 -181.126)" fill="#e1fef7"/>
        </g>
        <path id="Path_11988" data-name="Path 11988" d="M307.023,253.5q.332-2.119.751-4.226a4.366,4.366,0,0,0-5,3.607Q304.9,253.194,307.023,253.5Z" transform="translate(-291.251 -217.451)" fill="#006738"/>
        <path id="Path_11989" data-name="Path 11989" d="M344.615,110.2q-3.3-.83-6.6-1.469c-.68,2.446,1.525,4.86,4.993,5.6C343.548,112.957,344.086,111.577,344.615,110.2Z" transform="translate(-318.901 -106.846)" fill="#37b899"/>
        <path id="Path_11990" data-name="Path 11990" d="M252.575,99.862q-.1,2.247-.163,4.455c3.57.127,6.6-1.605,6.965-4.132Q256,99.909,252.575,99.862Z" transform="translate(-251.603 -99.862)" fill="#37b899"/>
        <path id="Path_11991" data-name="Path 11991" d="M284.889,229.073a1.476,1.476,0,0,1,1.3,1.665,1.52,1.52,0,0,1-3.007-.428A1.482,1.482,0,0,1,284.889,229.073Z" transform="translate(-275.815 -201.571)" fill="#006738"/>
        <path id="Path_11992" data-name="Path 11992" d="M299.443,126.829c1.17.158,1.949.978,1.758,1.805a2.037,2.037,0,0,1-2.345,1.216c-1.1-.146-1.9-.928-1.774-1.766A1.983,1.983,0,0,1,299.443,126.829Z" transform="translate(-286.759 -121.071)" fill="#37b899"/>
      </g>
      <path id="Path_11993" data-name="Path 11993" d="M225.048,491.389c0,1.845-13.411,3.338-28.2,3.338s-25.352-1.494-25.352-3.338,10.565-3.337,25.352-3.337S225.048,489.547,225.048,491.389Z" transform="translate(-14.518 -305.601)" fill="#88a1c8" opacity="0.3"/>
      <g id="Group_2623" data-name="Group 2623" transform="translate(158.21 122.743)">
        <path id="Path_11994" data-name="Path 11994" d="M214.746,222.734l-9.224-11.856s.211-3.669,6.166-3.462,12.3,2.77,17.873,3.03a47.306,47.306,0,0,0,15.121-1.977l-9.64,14.265Z" transform="translate(-199.513 -207.407)" fill="#fafbff"/>
        <path id="Path_11995" data-name="Path 11995" d="M224.53,301.241c-2.964-7.286-7.521-14.9-11.722-21.8h-20.3a224.071,224.071,0,0,0-11.629,21.8c-7,15.341-3.012,20.4,5.205,24.022,6.1,2.688,27.141,2.688,33.236,0C227.542,321.639,229.614,313.741,224.53,301.241Z" transform="translate(-177.278 -264.119)" fill="#fafbff"/>
        <g id="Group_2622" data-name="Group 2622" transform="translate(15.301 25.905)">
          <g id="Group_2621" data-name="Group 2621" transform="translate(0 3.775)">
            <path id="Path_11996" data-name="Path 11996" d="M262.983,352.73q-.184-2.19-4.046-2.2t-3.886,2.054a1.9,1.9,0,0,0,1.242,1.839,26.008,26.008,0,0,0,5.021,1.312,10.853,10.853,0,0,1,5.537,2.441,5.831,5.831,0,0,1,1.756,4.421,5.436,5.436,0,0,1-2.854,4.89,12.234,12.234,0,0,1-6.5,1.7q-8.84-.033-10.055-6.81l4.882-.377q.528,3.556,5.217,3.572,4.394.016,4.4-2.963a2.137,2.137,0,0,0-1.061-1.967,18.963,18.963,0,0,0-5-1.432,11.942,11.942,0,0,1-5.677-2.367,5.1,5.1,0,0,1-1.734-3.938,5.256,5.256,0,0,1,2.262-4.268q2.254-1.742,6.542-1.726,8.5.029,8.886,5.658Z" transform="translate(-249.197 -346.913)" fill="#fda14d"/>
          </g>
          <path id="Path_11997" data-name="Path 11997" d="M290.132,333.413l-4.646-.018.012-4.227,4.65.015Z" transform="translate(-277.766 -329.169)" fill="#fda14d"/>
          <path id="Path_11998" data-name="Path 11998" d="M289.728,452.012l-4.65-.018.012-4.228,4.648.017Z" transform="translate(-277.444 -422.534)" fill="#fda14d"/>
        </g>
        <path id="Path_11999" data-name="Path 11999" d="M263.021,276.565a.834.834,0,0,1-.906.734H239.581a.834.834,0,0,1-.907-.734v-.6a.834.834,0,0,1,.907-.734h22.533a.834.834,0,0,1,.906.734Z" transform="translate(-225.612 -260.799)" fill="#2b3d5f"/>
        <path id="Path_12000" data-name="Path 12000" d="M317.787,409.734c3.751,2.7,10.445.4,12.924-1.352,3.447-2.445,5.025-7.317,4.628-10.8a28.554,28.554,0,0,0-2.351-9.095,15.5,15.5,0,0,1-.976,9.815c-2,4.7-7.8,5.9-11.642,6.331C317.683,404.935,314.055,407.047,317.787,409.734Z" transform="translate(-286.637 -349.822)" fill="rgba(136,161,200,0.08)"/>
        <path id="Path_12001" data-name="Path 12001" d="M312.973,245.861s7.1-2.579,10.6-6.186c3.959-4.073-3.894,6.186-3.894,6.186Z" transform="translate(-284.103 -232.058)" fill="rgba(136,161,200,0.08)"/>
        <path id="Path_12002" data-name="Path 12002" d="M218.309,227.774s.134.1.352.3.522.476.87.827a29.225,29.225,0,0,1,2.347,2.734,28.9,28.9,0,0,1,2.008,2.993c.245.43.437.8.564,1.06s.192.419.192.419-.134-.1-.352-.3-.523-.476-.871-.827a27.269,27.269,0,0,1-2.346-2.735,29.113,29.113,0,0,1-2.006-2.993c-.246-.43-.437-.8-.564-1.06S218.309,227.774,218.309,227.774Z" transform="translate(-209.58 -223.441)" fill="rgba(136,161,200,0.08)"/>
        <path id="Path_12003" data-name="Path 12003" d="M213.217,291.932s-.113.345-.334.938-.545,1.435-.965,2.43c-.824,2-2.032,4.607-3.328,7.171s-2.686,5.081-3.81,6.927c-.553.928-1.041,1.687-1.389,2.215s-.558.824-.558.824.113-.345.334-.938.544-1.435.964-2.43c.823-2,2.032-4.607,3.33-7.17s2.688-5.08,3.812-6.926c.554-.927,1.041-1.687,1.388-2.216S213.217,291.932,213.217,291.932Z" transform="translate(-197.395 -273.949)" fill="rgba(136,161,200,0.08)"/>
      </g>
    </g>
  </g>
</svg>
