<svg xmlns="http://www.w3.org/2000/svg" width="100" height="100" viewBox="0 0 100 100">
  <g id="Group_2492" data-name="Group 2492" transform="translate(-1047 -2262)">
    <rect id="Rectangle_54" data-name="Rectangle 54" width="100" height="100" transform="translate(1047 2262)" fill="#ecf0ff" opacity="0"/>
    <g id="Group_2491" data-name="Group 2491" transform="translate(347.75 1352.793)">
      <path id="Path_11782" data-name="Path 11782" d="M769.063,951.229a6.265,6.265,0,0,1-3.4-1.013l-.654-.435-1.044,2.914.377.27a7.94,7.94,0,0,0,3.714,1.224v2.653h2.863v-2.812a5.061,5.061,0,0,0,4.1-4.913c0-3.122-2.354-4.482-4.4-5.317-2.43-1.005-2.84-1.55-2.84-2.391,0-.783.562-1.618,2.138-1.618a5.667,5.667,0,0,1,2.965.8l.625.356,1.087-2.869-.448-.262a7.305,7.305,0,0,0-3.07-.954v-2.556h-2.837v2.733a4.766,4.766,0,0,0-3.919,4.68c0,2.838,2.245,4.11,4.665,5.059,1.811.734,2.549,1.464,2.549,2.52C771.538,950.454,770.543,951.229,769.063,951.229Zm.38-5.589c-2.8-1.1-3.893-2.2-3.893-3.919,0-1.862,1.3-3.231,3.4-3.573l.515-.084v-2.529h.382v2.5l.593.02a6.628,6.628,0,0,1,2.629.585l-.212.559a6.954,6.954,0,0,0-2.941-.632c-2.325,0-3.365,1.429-3.365,2.846,0,1.887,1.56,2.682,3.6,3.526,2.585,1.055,3.64,2.267,3.64,4.182a3.9,3.9,0,0,1-3.586,3.807l-.515.085v2.606h-.408V953l-.6-.01a7.5,7.5,0,0,1-3.237-.788l.207-.577a7.6,7.6,0,0,0,3.409.827c2.146,0,3.7-1.328,3.7-3.157C772.765,947.25,770.994,946.268,769.443,945.64Z" transform="translate(-19.242 -2.708)" fill="#2b3d5f"/>
      <path id="Path_11783" data-name="Path 11783" d="M763.515,949.782a14.981,14.981,0,0,0,1.984-7.462,15.163,15.163,0,0,0-30.326,0,14.987,14.987,0,0,0,1.984,7.462H718.9L714.25,962.4l2.19,28.8h65.9l1.906-28.87-5.9-12.555Zm-26.6-7.462a13.421,13.421,0,0,1,21.318-10.81q.254.185.5.382a13.5,13.5,0,0,1,3.166,3.643,13.265,13.265,0,0,1,1.861,6.785,13.572,13.572,0,0,1-.069,1.366,13.268,13.268,0,0,1-.986,3.837,13.43,13.43,0,0,1-25.789-5.2Zm16.669,14.762h18.137v3.1H726.778v-3.1H747.09c.061.014.126.023.188.036a15.125,15.125,0,0,0,2.989.315l.069,0A15.186,15.186,0,0,0,753.584,957.082ZM779.9,988.605H718.86L717.1,965.514h64.32Zm1.668-25.27-.023.343H716.965l-.025-.34-.044-.568,3.83-10.386h18.31c.216.24.449.463.68.689a15.209,15.209,0,0,0,3.909,2.8H725.56V961.4h47.379v-5.528H757.05a15.24,15.24,0,0,0,4.587-3.484h15.049l4.916,10.451Z" fill="#2b3d5f"/>
    </g>
  </g>
</svg>
