<svg xmlns="http://www.w3.org/2000/svg" width="100" height="100" viewBox="0 0 100 100">
  <g id="Group_2641" data-name="Group 2641" transform="translate(-1001 -862)">
    <rect id="Rectangle_41" data-name="Rectangle 41" width="100" height="100" transform="translate(1001 862)" fill="#fff"/>
    <g id="Group_2640" data-name="Group 2640" transform="translate(975.528 828.415)">
      <path id="Path_12010" data-name="Path 12010" d="M102.925,176.754a33.144,33.144,0,0,1-37.035-13.9l-1.649.475a34.789,34.789,0,0,0,64.3-18.525l-1.649.475A33.143,33.143,0,0,1,102.925,176.754Z" transform="translate(-17.355 -61.333)" fill="#2b3d5f"/>
      <path id="Path_12011" data-name="Path 12011" d="M75.347,51.748A33.144,33.144,0,0,1,111.254,64l1.678-.483A34.787,34.787,0,0,0,49.788,81.71l1.675-.483A33.143,33.143,0,0,1,75.347,51.748Z" transform="translate(-8.122)" fill="#2b3d5f"/>
      <path id="Path_12012" data-name="Path 12012" d="M108.394,176.832a31.445,31.445,0,0,0,22.727-29.35l-.93.268a30.524,30.524,0,0,1-55.727,16.056l-.927.267A31.444,31.444,0,0,0,108.394,176.832Z" transform="translate(-23.295 -63.042)" fill="#2b3d5f"/>
      <path id="Path_12013" data-name="Path 12013" d="M81.869,59.292A31.449,31.449,0,0,0,59.261,86.637l.952-.274a30.524,30.524,0,0,1,54.4-15.672l.952-.274A31.444,31.444,0,0,0,81.869,59.292Z" transform="translate(-14.174 -5.912)" fill="#2b3d5f"/>
      <path id="Path_12014" data-name="Path 12014" d="M44.3,155.156l-3.532,1.018.546,1.9,1.43-.412.763,2.648a4.542,4.542,0,0,1-1.021.439,1.693,1.693,0,0,1-1.8-.6,7.106,7.106,0,0,1-1.376-2.83,5.621,5.621,0,0,1-.144-3.189,2.3,2.3,0,0,1,1.624-1.653,3.84,3.84,0,0,1,2,.041l.174-1.95a5.493,5.493,0,0,0-2.844.049,4.358,4.358,0,0,0-3.028,2.575,7.121,7.121,0,0,0,.01,4.712,7.894,7.894,0,0,0,2.359,4.1,3.72,3.72,0,0,0,3.543.64,8.384,8.384,0,0,0,3.008-1.56Z" transform="translate(1 -64.15)" fill="#2b3d5f"/>
      <path id="Path_12015" data-name="Path 12015" d="M60.767,151.694a5.065,5.065,0,0,0,1.819,2.929,3.355,3.355,0,0,0,2.934.323,3.491,3.491,0,0,0,2.381-1.863,4.9,4.9,0,0,0,.025-3.418l-2.154-7.476-2.133.615,2.2,7.649a3,3,0,0,1,.088,1.7,1.236,1.236,0,0,1-.89.864q-1.462.421-2.1-1.784l-2.19-7.6-2.133.615Z" transform="translate(-13.01 -58.906)" fill="#2b3d5f"/>
      <g id="Group_2634" data-name="Group 2634" transform="translate(56.663 81.269)">
        <path id="Path_12016" data-name="Path 12016" d="M92.137,136.611l-2.916.84.482,12.424,2.149-.619-.177-3.107,3.011-.867,1.5,2.725,2.157-.622Zm-.583,7.511q-.177-3.107-.255-3.97t-.17-1.572q.135.32.612,1.248t.6,1.157l1.39,2.509Z" transform="translate(-89.221 -136.611)" fill="#2b3d5f"/>
      </g>
      <g id="Group_2635" data-name="Group 2635" transform="translate(63.561 79.125)">
        <path id="Path_12017" data-name="Path 12017" d="M115.012,136.822a3.383,3.383,0,0,0,.6-3.484A3.648,3.648,0,0,0,114.014,131a3.75,3.75,0,0,0-2.879-.086l-2.813.81,3.328,11.552,2.149-.619-1.3-4.5.766-.221,3.121,3.97,2.3-.663Zm-1.52-1.415a1.344,1.344,0,0,1-.966.745l-.553.16-.965-3.35.537-.155a1.481,1.481,0,0,1,1.194.062,1.9,1.9,0,0,1,.715,1.159A2.169,2.169,0,0,1,113.491,135.407Z" transform="translate(-108.322 -130.675)" fill="#2b3d5f"/>
      </g>
      <g id="Group_2636" data-name="Group 2636" transform="translate(73.561 76.401)">
        <path id="Path_12018" data-name="Path 12018" d="M138.927,123.13l-2.916.84.482,12.424,2.15-.619-.176-3.107,3.011-.867,1.5,2.725,2.157-.622Zm-.583,7.511q-.176-3.107-.254-3.97t-.17-1.572q.135.32.612,1.248t.6,1.157l1.39,2.509Z" transform="translate(-136.011 -123.13)" fill="#2b3d5f"/>
      </g>
      <path id="Path_12019" data-name="Path 12019" d="M163.2,113.64l-1.976.569,1.817,6.306a11.7,11.7,0,0,0,.719,1.932l-.087.025-5.926-7.261-2.639.76,3.328,11.553,1.992-.574-1.819-6.314a10.6,10.6,0,0,0-.789-2l.1-.03,5.983,7.339,2.623-.756Z" transform="translate(-74.653 -40.667)" fill="#2b3d5f"/>
      <path id="Path_12020" data-name="Path 12020" d="M187.722,107.353l-6.567,1.892.544,1.888,2.213-.638,2.784,9.664,2.141-.617-2.784-9.664,2.213-.638Z" transform="translate(-91.291 -36.651)" fill="#2b3d5f"/>
      <path id="Path_12021" data-name="Path 12021" d="M208.718,104.008l-.535-1.857-5.207,1.5L206.3,115.2l5.207-1.5-.542-1.881-3.058.881-.922-3.2,2.837-.817-.537-1.865-2.837.817-.792-2.75Z" transform="translate(-105.231 -33.327)" fill="#2b3d5f"/>
      <path id="Path_12022" data-name="Path 12022" d="M228.022,98.446l-.535-1.857-5.207,1.5,3.329,11.553,5.207-1.5-.542-1.881-3.058.881-.922-3.2,2.837-.817-.538-1.865-2.837.817-.792-2.75Z" transform="translate(-117.563 -29.774)" fill="#2b3d5f"/>
      <path id="Path_12033" data-name="Path 12033" d="M157.148,199.243l.381-3,2.814-1.105-2.735-1.29-.182-3.018-2.071,2.2-2.926-.76,1.455,2.65-1.628,2.549,2.97-.565Z" transform="translate(-73.584 -90.736)" fill="#fda14d"/>
      <path id="Path_12034" data-name="Path 12034" d="M135.912,203.815l.278-2.184,2.049-.8-1.991-.939-.132-2.2-1.509,1.6-2.131-.554,1.059,1.93-1.185,1.857,2.163-.411Z" transform="translate(-60.867 -95.117)" fill="#fda14d"/>
      <path id="Path_12035" data-name="Path 12035" d="M180.447,190.984l.278-2.184,2.049-.8-1.991-.939-.132-2.2-1.509,1.6-2.131-.554,1.06,1.93-1.186,1.857,2.163-.411Z" transform="translate(-89.318 -86.92)" fill="#fda14d"/>
      <path id="Path_12036" data-name="Path 12036" d="M124.743,84.313l-1.921-2.334-.38,3-2.815,1.106,2.735,1.29.182,3.017,2.07-2.2,2.926.759-1.454-2.65,1.629-2.55Z" transform="translate(-52.739 -21.195)" fill="#fda14d"/>
      <path id="Path_12037" data-name="Path 12037" d="M149.342,83.144l-1.4-1.7-.279,2.186-2.049.8,1.99.94.133,2.2,1.508-1.6,2.132.552-1.059-1.929,1.183-1.857Z" transform="translate(-69.342 -20.854)" fill="#fda14d"/>
      <path id="Path_12038" data-name="Path 12038" d="M104.811,95.976l-1.4-1.7-.276,2.185-2.049.8,1.989.94.133,2.2,1.509-1.6,2.129.553-1.059-1.929,1.187-1.858Z" transform="translate(-40.893 -29.052)" fill="#fda14d"/>
    </g>
  </g>
</svg>
