<svg xmlns="http://www.w3.org/2000/svg" width="120" height="83" viewBox="0 0 120 83">
  <g id="Group_2558" data-name="Group 2558" transform="translate(-1022 -881)">
    <g id="Group_2557" data-name="Group 2557" transform="translate(1022 881)">
      <g id="Group_2553" data-name="Group 2553" transform="translate(33.992 0)">
        <g id="Group_2550" data-name="Group 2550" transform="translate(0 7.411)">
          <path id="Path_11867" data-name="Path 11867" d="M302.795,183.47q-4.317-5.654-4.319-15.224v-22.6q0-10.359,3.84-16.05t13.6-5.69q8.638,0,12.479,4T332.309,140v1.1H320.631q0-4.394-.88-6.16t-3.758-1.765a3.839,3.839,0,0,0-3.039,1.176,7.834,7.834,0,0,0-1.482,3.925,52.4,52.4,0,0,0-.439,7.77v6.433a6.9,6.9,0,0,1,3.319-2.706,13.318,13.318,0,0,1,5.317-.981q7.2,0,10.44,4.941t3.24,13.339q0,10.518-4,16.283t-13.354,5.767Q307.114,189.117,302.795,183.47Zm17.158-6a25.472,25.472,0,0,0,1-8.358,51.737,51.737,0,0,0-.281-6.158,6.936,6.936,0,0,0-1.357-3.57,4.023,4.023,0,0,0-3.319-1.337,5.258,5.258,0,0,0-2.96.9,6.23,6.23,0,0,0-2,2v10.12q0,9.025,5.039,9.024A3.806,3.806,0,0,0,319.953,177.465Z" transform="translate(-298.475 -123.908)" fill="#fda14d"/>
        </g>
        <g id="Group_2552" data-name="Group 2552" transform="translate(4.96)">
          <g id="Group_2551" data-name="Group 2551">
            <path id="Path_11868" data-name="Path 11868" d="M319.286,188.48c-6.3,0-11.071-2.065-14.179-6.134h0c-3.029-3.968-4.564-9.336-4.564-15.957V143.776c0-7.12,1.36-12.748,4.041-16.725,2.792-4.137,7.711-6.233,14.621-6.233,6.082,0,10.582,1.476,13.373,4.384,2.765,2.884,4.195,7.226,4.252,12.906v1.111a1.219,1.219,0,0,1-1.228,1.206H323.925a1.219,1.219,0,0,1-1.228-1.206c0-3.4-.41-4.945-.753-5.637-.134-.268-.544-1.088-2.657-1.088a2.655,2.655,0,0,0-2.113.761,6.629,6.629,0,0,0-1.194,3.325,51.515,51.515,0,0,0-.424,7.589v3.485a9.912,9.912,0,0,1,1.6-.859,14.624,14.624,0,0,1,5.809-1.083c5.224,0,9.083,1.851,11.474,5.5,2.278,3.478,3.432,8.187,3.432,14,0,7.231-1.415,12.941-4.214,16.972C330.763,186.361,325.927,188.48,319.286,188.48ZM307.071,180.9c2.657,3.48,6.653,5.171,12.215,5.171,5.862,0,9.9-1.717,12.342-5.246,2.514-3.624,3.787-8.877,3.787-15.616,0-5.338-1.024-9.612-3.046-12.7-1.933-2.955-5.01-4.394-9.406-4.394a12.146,12.146,0,0,0-4.821.881,5.675,5.675,0,0,0-2.76,2.22,1.232,1.232,0,0,1-2.283-.615v-6.438a53.718,53.718,0,0,1,.456-7.961,8.836,8.836,0,0,1,1.765-4.53,5.039,5.039,0,0,1,3.967-1.594c3.01,0,4.305,1.328,4.864,2.439a13.887,13.887,0,0,1,.986,5.491h9.236c-.065-4.989-1.271-8.745-3.583-11.161s-6.2-3.626-11.584-3.626c-6.121,0-10.232,1.686-12.572,5.152-2.413,3.579-3.636,8.757-3.636,15.4v22.614c0,6.087,1.372,10.97,4.075,14.512Zm12.294-1.45c-4.159,0-6.267-3.445-6.267-10.236V159.088a1.216,1.216,0,0,1,.161-.6,7.461,7.461,0,0,1,2.379-2.4,6.513,6.513,0,0,1,3.648-1.111,5.2,5.2,0,0,1,4.279,1.792,8.144,8.144,0,0,1,1.617,4.177,53.71,53.71,0,0,1,.29,6.308c0,4-.35,6.875-1.077,8.785h0A5,5,0,0,1,319.365,179.45Zm-3.811-20.017v9.781c0,7.827,2.868,7.827,3.811,7.827a2.6,2.6,0,0,0,2.729-1.848,24.579,24.579,0,0,0,.923-7.942,51.489,51.489,0,0,0-.271-6.014,5.846,5.846,0,0,0-1.1-2.972,2.839,2.839,0,0,0-2.358-.881,4.015,4.015,0,0,0-2.274.7A5.433,5.433,0,0,0,315.555,159.434Zm7.692,16.181h0Z" transform="translate(-300.543 -120.818)" fill="#2b3d5f"/>
          </g>
        </g>
      </g>
      <g id="Group_2554" data-name="Group 2554" transform="translate(80.408 19.316)">
        <path id="Path_11869" data-name="Path 11869" d="M323.32,130.5a1.365,1.365,0,1,1-1.365,1.365A1.363,1.363,0,0,1,323.32,130.5Z" transform="translate(-312.057 -127.849)" fill="#ffebd9"/>
        <path id="Path_11870" data-name="Path 11870" d="M330.022,130.289a1.876,1.876,0,1,1-1.873,1.876A1.875,1.875,0,0,1,330.022,130.289Z" transform="translate(-303.395 -128.147)" fill="#ffebd9"/>
        <path id="Path_11871" data-name="Path 11871" d="M321.406,147.213a3.578,3.578,0,1,1-3.578,3.578A3.579,3.579,0,0,1,321.406,147.213Z" transform="translate(-317.828 -104.481)" fill="#ffebd9"/>
        <path id="Path_11872" data-name="Path 11872" d="M327.813,147.213a3.578,3.578,0,1,1-3.578,3.578A3.578,3.578,0,0,1,327.813,147.213Z" transform="translate(-308.869 -104.481)" fill="#ffebd9"/>
        <path id="Path_11873" data-name="Path 11873" d="M335.212,146.5a5.284,5.284,0,1,1-5.281,5.284A5.283,5.283,0,0,1,335.212,146.5Z" transform="translate(-300.903 -105.475)" fill="#ffebd9"/>
        <path id="Path_11874" data-name="Path 11874" d="M324.735,140.717a3.792,3.792,0,1,1-3.792,3.792A3.792,3.792,0,0,1,324.735,140.717Z" transform="translate(-313.472 -113.565)" fill="#ffebd9"/>
        <path id="Path_11875" data-name="Path 11875" d="M332.011,140.1a5.282,5.282,0,1,1-5.284,5.281A5.282,5.282,0,0,1,332.011,140.1Z" transform="translate(-305.384 -114.433)" fill="#ffebd9"/>
        <circle id="Ellipse_50" data-name="Ellipse 50" cx="1.576" cy="1.576" r="1.576" transform="translate(2.003 14.003)" fill="#ffebd9"/>
        <circle id="Ellipse_51" data-name="Ellipse 51" cx="1.576" cy="1.576" r="1.576" transform="translate(17.368 14.003)" fill="#ffebd9"/>
        <path id="Path_11876" data-name="Path 11876" d="M333.4,134.986a2.173,2.173,0,1,1-2.171,2.173A2.173,2.173,0,0,1,333.4,134.986Z" transform="translate(-299.09 -121.579)" fill="#ffebd9"/>
        <path id="Path_11877" data-name="Path 11877" d="M329.054,129.4a.213.213,0,1,1-.213.213A.214.214,0,0,1,329.054,129.4Z" transform="translate(-302.428 -129.396)" fill="#ffebd9"/>
      </g>
      <g id="Group_2555" data-name="Group 2555" transform="translate(0 33.524)">
        <circle id="Ellipse_52" data-name="Ellipse 52" cx="1.009" cy="1.009" r="1.009" transform="translate(19.956 1.964)" fill="#ffebd9"/>
        <path id="Path_11878" data-name="Path 11878" d="M289.113,135.981a1.387,1.387,0,1,0,1.386,1.386A1.387,1.387,0,0,0,289.113,135.981Z" transform="translate(-279.517 -134.396)" fill="#ffebd9"/>
        <path id="Path_11879" data-name="Path 11879" d="M296.959,148.5a2.648,2.648,0,1,0,2.648,2.648A2.649,2.649,0,0,0,296.959,148.5Z" transform="translate(-270.309 -116.884)" fill="#ffebd9"/>
        <path id="Path_11880" data-name="Path 11880" d="M292.217,148.5a2.648,2.648,0,1,0,2.648,2.648A2.647,2.647,0,0,0,292.217,148.5Z" transform="translate(-276.937 -116.884)" fill="#ffebd9"/>
        <circle id="Ellipse_53" data-name="Ellipse 53" cx="3.91" cy="3.91" r="3.91" transform="translate(0 30.359)" fill="#ffebd9"/>
        <circle id="Ellipse_54" data-name="Ellipse 54" cx="2.806" cy="2.806" r="2.806" transform="translate(18.159 20.092)" fill="#ffebd9"/>
        <circle id="Ellipse_55" data-name="Ellipse 55" cx="3.91" cy="3.91" r="3.91" transform="translate(5.685 18.989)" fill="#ffebd9"/>
        <circle id="Ellipse_56" data-name="Ellipse 56" cx="1.167" cy="1.167" r="1.167" transform="translate(25.483 10.362)" fill="#ffebd9"/>
        <circle id="Ellipse_57" data-name="Ellipse 57" cx="1.167" cy="1.167" r="1.167" transform="translate(14.113 10.362)" fill="#ffebd9"/>
        <path id="Path_11881" data-name="Path 11881" d="M286.869,139.456a1.608,1.608,0,1,0,1.609,1.609A1.609,1.609,0,0,0,286.869,139.456Z" transform="translate(-282.96 -129.536)" fill="#ffebd9"/>
        <path id="Path_11882" data-name="Path 11882" d="M288.4,135.32a.158.158,0,1,0,.156.158A.158.158,0,0,0,288.4,135.32Z" transform="translate(-278.8 -135.32)" fill="#ffebd9"/>
      </g>
      <g id="Group_2556" data-name="Group 2556" transform="translate(22.978 80.544)">
        <line id="Line_8" data-name="Line 8" x2="66.273" transform="translate(1.226 1.228)" fill="#ffe100"/>
        <path id="Path_11883" data-name="Path 11883" d="M361.383,157.381H295.109a1.228,1.228,0,0,1,0-2.456h66.274a1.228,1.228,0,1,1,0,2.456Z" transform="translate(-293.883 -154.925)" fill="#2b3d5f"/>
      </g>
    </g>
  </g>
</svg>
