<svg xmlns="http://www.w3.org/2000/svg" width="120" height="83" viewBox="0 0 120 83">
  <g id="Group_2535" data-name="Group 2535" transform="translate(-342 -930)">
    <g id="Group_2534" data-name="Group 2534" transform="translate(342 930)">
      <g id="Group_2530" data-name="Group 2530" transform="translate(32.591 0)">
        <g id="Group_2527" data-name="Group 2527" transform="translate(0 7.411)">
          <path id="Path_11836" data-name="Path 11836" d="M317.567,121.15H297.891v-9.531l16.88-39.71h14.314v39.948h6.32v9.293h-6.32v15.09H317.567Zm0-9.293V84.538l-9.917,27.319Z" transform="translate(-297.891 -71.909)" fill="#fda14d"/>
        </g>
        <g id="Group_2529" data-name="Group 2529" transform="translate(4.96)">
          <g id="Group_2528" data-name="Group 2528">
            <path id="Path_11837" data-name="Path 11837" d="M332.378,135.6H320.863a1.225,1.225,0,0,1-1.228-1.22V120.51H301.185a1.224,1.224,0,0,1-1.226-1.22v-9.533a1.2,1.2,0,0,1,.1-.474l16.877-39.721a1.229,1.229,0,0,1,1.132-.743h14.314a1.223,1.223,0,0,1,1.228,1.217v38.739H338.7a1.226,1.226,0,0,1,1.228,1.22v9.3a1.226,1.226,0,0,1-1.228,1.22h-5.092v13.874A1.225,1.225,0,0,1,332.378,135.6Zm-10.289-2.439h9.063V119.29a1.224,1.224,0,0,1,1.226-1.22h5.092v-6.858h-5.092A1.222,1.222,0,0,1,331.152,110V71.256H318.877L302.413,110v8.066h18.451a1.224,1.224,0,0,1,1.226,1.22Zm-1.226-21.952h-9.92a1.232,1.232,0,0,1-1-.517,1.208,1.208,0,0,1-.149-1.115l9.917-27.326a1.241,1.241,0,0,1,1.367-.786,1.219,1.219,0,0,1,1.015,1.2V110A1.222,1.222,0,0,1,320.863,111.212Zm-8.174-2.437h6.946V89.644Z" transform="translate(-299.959 -68.819)" fill="#2b3d5f"/>
          </g>
        </g>
      </g>
      <g id="Group_2531" data-name="Group 2531" transform="translate(80.408 19.318)">
        <path id="Path_11838" data-name="Path 11838" d="M323.32,78.169a1.363,1.363,0,1,1-1.365,1.365A1.363,1.363,0,0,1,323.32,78.169Z" transform="translate(-312.057 -75.516)" fill="#ffebd9"/>
        <path id="Path_11839" data-name="Path 11839" d="M330.022,77.956a1.874,1.874,0,1,1-1.873,1.876A1.875,1.875,0,0,1,330.022,77.956Z" transform="translate(-303.395 -75.814)" fill="#ffebd9"/>
        <path id="Path_11840" data-name="Path 11840" d="M321.406,94.879a3.58,3.58,0,1,1-3.578,3.581A3.579,3.579,0,0,1,321.406,94.879Z" transform="translate(-317.828 -52.15)" fill="#ffebd9"/>
        <path id="Path_11841" data-name="Path 11841" d="M327.813,94.879a3.58,3.58,0,1,1-3.578,3.581A3.579,3.579,0,0,1,327.813,94.879Z" transform="translate(-308.869 -52.15)" fill="#ffebd9"/>
        <path id="Path_11842" data-name="Path 11842" d="M335.212,94.169a5.282,5.282,0,1,1-5.281,5.284A5.283,5.283,0,0,1,335.212,94.169Z" transform="translate(-300.903 -53.142)" fill="#ffebd9"/>
        <path id="Path_11843" data-name="Path 11843" d="M324.735,88.384a3.792,3.792,0,1,1-3.792,3.792A3.792,3.792,0,0,1,324.735,88.384Z" transform="translate(-313.472 -61.232)" fill="#ffebd9"/>
        <path id="Path_11844" data-name="Path 11844" d="M332.011,87.762a5.284,5.284,0,1,1-5.284,5.284A5.283,5.283,0,0,1,332.011,87.762Z" transform="translate(-305.384 -62.102)" fill="#ffebd9"/>
        <circle id="Ellipse_31" data-name="Ellipse 31" cx="1.576" cy="1.576" r="1.576" transform="translate(2.003 14.002)" fill="#ffebd9"/>
        <circle id="Ellipse_32" data-name="Ellipse 32" cx="1.576" cy="1.576" r="1.576" transform="translate(17.368 14.002)" fill="#ffebd9"/>
        <circle id="Ellipse_33" data-name="Ellipse 33" cx="2.173" cy="2.173" r="2.173" transform="translate(32.137 13.406)" fill="#ffebd9"/>
        <path id="Path_11845" data-name="Path 11845" d="M329.054,77.063a.213.213,0,1,1-.213.213A.214.214,0,0,1,329.054,77.063Z" transform="translate(-302.428 -77.063)" fill="#ffebd9"/>
      </g>
      <g id="Group_2532" data-name="Group 2532" transform="translate(0 33.526)">
        <path id="Path_11846" data-name="Path 11846" d="M293.63,83.805a1.01,1.01,0,1,0,1.01,1.01A1.009,1.009,0,0,0,293.63,83.805Z" transform="translate(-272.667 -81.843)" fill="#ffebd9"/>
        <path id="Path_11847" data-name="Path 11847" d="M289.113,83.648a1.387,1.387,0,1,0,1.386,1.386A1.387,1.387,0,0,0,289.113,83.648Z" transform="translate(-279.517 -82.063)" fill="#ffebd9"/>
        <path id="Path_11848" data-name="Path 11848" d="M296.959,96.171a2.648,2.648,0,1,0,2.648,2.648A2.649,2.649,0,0,0,296.959,96.171Z" transform="translate(-270.309 -64.551)" fill="#ffebd9"/>
        <path id="Path_11849" data-name="Path 11849" d="M292.217,96.171a2.648,2.648,0,1,0,2.648,2.648A2.647,2.647,0,0,0,292.217,96.171Z" transform="translate(-276.937 -64.551)" fill="#ffebd9"/>
        <circle id="Ellipse_34" data-name="Ellipse 34" cx="3.91" cy="3.91" r="3.91" transform="translate(0 30.358)" fill="#ffebd9"/>
        <circle id="Ellipse_35" data-name="Ellipse 35" cx="2.806" cy="2.806" r="2.806" transform="translate(18.159 20.092)" fill="#ffebd9"/>
        <circle id="Ellipse_36" data-name="Ellipse 36" cx="3.91" cy="3.91" r="3.91" transform="translate(5.685 18.988)" fill="#ffebd9"/>
        <circle id="Ellipse_37" data-name="Ellipse 37" cx="1.167" cy="1.167" r="1.167" transform="translate(25.483 10.361)" fill="#ffebd9"/>
        <circle id="Ellipse_38" data-name="Ellipse 38" cx="1.167" cy="1.167" r="1.167" transform="translate(14.113 10.361)" fill="#ffebd9"/>
        <path id="Path_11850" data-name="Path 11850" d="M286.869,87.123a1.608,1.608,0,1,0,1.609,1.607A1.607,1.607,0,0,0,286.869,87.123Z" transform="translate(-282.96 -77.203)" fill="#ffebd9"/>
        <path id="Path_11851" data-name="Path 11851" d="M288.4,82.987a.157.157,0,1,0,.156.158A.157.157,0,0,0,288.4,82.987Z" transform="translate(-278.8 -82.987)" fill="#ffebd9"/>
      </g>
      <g id="Group_2533" data-name="Group 2533" transform="translate(22.978 80.546)">
        <line id="Line_6" data-name="Line 6" x2="66.273" transform="translate(1.226 1.227)" fill="#ffe100"/>
        <path id="Path_11852" data-name="Path 11852" d="M361.383,105.046H295.109a1.227,1.227,0,0,1,0-2.454h66.274a1.227,1.227,0,1,1,0,2.454Z" transform="translate(-293.883 -102.592)" fill="#2b3d5f"/>
      </g>
    </g>
  </g>
</svg>
