<svg xmlns="http://www.w3.org/2000/svg" width="103.701" height="45.718" viewBox="0 0 103.701 45.718">
  <path id="Path_11786" data-name="Path 11786" d="M90.583,3.507c.829,1.274,1.621,2.565,2.394,3.857-1.565-.655-3.149-1.309-4.733-1.858a98.96,98.96,0,0,0-13.518-3.52A111.952,111.952,0,0,0,48.1.145,108.754,108.754,0,0,0,21.869,4.763C13.748,7.292,5.11,10.565.23,17.624c-.866,1.256.9,3.043,2.21,2.123,13.481-9.376,30.13-13.8,46.668-14.453a106.062,106.062,0,0,1,25.139,2,113.168,113.168,0,0,1,11.566,3.043c2.523.8,5.046,1.716,7.588,2.512a43.639,43.639,0,0,0-9.485,2.724c-2.007.92-1.068,4.3,1.16,4.1,5.249-.425,10.074-2.884,15.194-3.839a2.252,2.252,0,0,0,1.639-2.777A34.387,34.387,0,0,0,94.137.871C92.425-.969,89.238,1.419,90.583,3.507Z" transform="matrix(0.966, 0.259, -0.259, 0.966, 5.177, 0)" fill="#37b899"/>
</svg>
