<svg xmlns="http://www.w3.org/2000/svg" width="105.004" height="47.013" viewBox="0 0 105.004 47.013">
  <path id="Path_11749" data-name="Path 11749" d="M113.37,19.868c.829,1.274,1.621,2.565,2.394,3.857-1.565-.655-3.149-1.309-4.733-1.858a98.96,98.96,0,0,0-13.518-3.52,111.951,111.951,0,0,0-26.631-1.84,108.753,108.753,0,0,0-26.226,4.617c-8.122,2.53-16.759,5.8-21.64,12.861-.866,1.256.9,3.043,2.21,2.123,13.481-9.376,30.13-13.8,46.668-14.453a106.062,106.062,0,0,1,25.139,2A113.167,113.167,0,0,1,108.6,26.7c2.523.8,5.046,1.716,7.588,2.512a43.638,43.638,0,0,0-9.485,2.724c-2.007.92-1.068,4.3,1.16,4.1,5.249-.425,10.074-2.884,15.194-3.839a2.251,2.251,0,0,0,1.639-2.777,34.387,34.387,0,0,0-7.772-12.189C115.212,15.393,112.026,17.781,113.37,19.868Z" transform="matrix(0.966, 0.259, -0.259, 0.966, -11.921, -21.074)" fill="none" stroke="#37b899" stroke-width="1" stroke-dasharray="6"/>
</svg>
