<svg xmlns="http://www.w3.org/2000/svg" width="20" height="16" viewBox="0 0 20 16">
  <path id="Shape" d="M9.711,4.256l.043.692-.723-.085A11.906,11.906,0,0,1,2.153,1.587L1.2.669l-.246.678a3.981,3.981,0,0,0,.9,4.181c.578.593.448.678-.549.325A1.752,1.752,0,0,0,.621,5.7a4.931,4.931,0,0,0,.52,1.893A4.606,4.606,0,0,0,3.121,9.4l.708.325-.838.014c-.809,0-.838.014-.751.311a4.321,4.321,0,0,0,2.7,2.316l.9.3-.78.452a8.34,8.34,0,0,1-3.873,1.045A4.413,4.413,0,0,0,0,14.27a11.158,11.158,0,0,0,2.789,1.243,12.563,12.563,0,0,0,9.48-1.045,12.4,12.4,0,0,0,4.812-5.48,14.174,14.174,0,0,0,.983-4.237c0-.65.043-.734.853-1.511a9.327,9.327,0,0,0,1.012-1.087c.145-.268.13-.268-.607-.028-1.228.424-1.4.367-.795-.268A4.088,4.088,0,0,0,19.509.344c0-.042-.217.028-.462.155a8.223,8.223,0,0,1-1.272.48l-.78.24L16.286.754A5.954,5.954,0,0,0,15.058.132a5.094,5.094,0,0,0-2.529.056A4.046,4.046,0,0,0,9.711,4.256Z" fill="#fff"/>
</svg>
