<svg xmlns="http://www.w3.org/2000/svg" width="100" height="100" viewBox="0 0 100 100">
  <g id="Group_2607" data-name="Group 2607" transform="translate(-1001 -2985)">
    <rect id="Rectangle_62" data-name="Rectangle 62" width="100" height="100" transform="translate(1001 2985)" fill="#fff"/>
    <g id="Group_2585" data-name="Group 2585" transform="translate(838.402 2700.134)">
      <g id="Group_2584" data-name="Group 2584">
        <path id="Path_11915" data-name="Path 11915" d="M255.38,338.115c.08-1.073.135-2.153.135-3.249s-.055-2.175-.135-3.249c-7.31-4.108-8.57-8.63-4.275-15.706a43.066,43.066,0,0,0-3.092-5.283c-8.254.307-11.483-2.924-11.178-11.178a43.108,43.108,0,0,0-5.284-3.092c-7.073,4.3-11.6,3.036-15.7-4.274-1.074-.081-2.155-.135-3.25-.135s-2.176.054-3.249.135c-4.108,7.31-8.63,8.569-15.705,4.274a43.171,43.171,0,0,0-5.283,3.092c.306,8.254-2.923,11.485-11.178,11.178a43.071,43.071,0,0,0-3.092,5.285c4.295,7.074,3.036,11.6-4.274,15.7-.081,1.075-.135,2.157-.135,3.25s.054,2.176.135,3.25c7.31,4.11,8.569,8.629,4.273,15.7a43.239,43.239,0,0,0,3.092,5.284c8.256-.306,11.485,2.924,11.179,11.178a42.907,42.907,0,0,0,5.283,3.091c7.075-4.295,11.6-3.035,15.705,4.276,1.073.081,2.155.135,3.249.135s2.176-.054,3.25-.135c4.109-7.311,8.631-8.571,15.7-4.276a42.845,42.845,0,0,0,5.284-3.091c-.305-8.254,2.924-11.484,11.178-11.178a42.6,42.6,0,0,0,3.092-5.284C246.81,346.745,248.07,342.226,255.38,338.115ZM212.6,356.275a21.409,21.409,0,1,1,21.407-21.409A21.409,21.409,0,0,1,212.6,356.275Z" fill="#88a1c8"/>
        <path id="Path_11916" data-name="Path 11916" d="M212.6,306.689a28.178,28.178,0,1,0,28.176,28.177A28.178,28.178,0,0,0,212.6,306.689Zm0,49.586a21.409,21.409,0,1,1,21.407-21.409A21.409,21.409,0,0,1,212.6,356.275Z" fill="#2b3d5f"/>
        <path id="Path_11917" data-name="Path 11917" d="M255.38,338.115c.08-1.073.135-2.153.135-3.249s-.055-2.175-.135-3.249c-7.31-4.108-8.57-8.63-4.275-15.706a43.066,43.066,0,0,0-3.092-5.283c-8.254.307-11.483-2.924-11.178-11.178a43.108,43.108,0,0,0-5.284-3.092c-7.073,4.3-11.6,3.036-15.7-4.274-1.074-.081-2.155-.135-3.25-.135s-2.176.054-3.249.135c-4.108,7.31-8.63,8.569-15.705,4.274a43.171,43.171,0,0,0-5.283,3.092c.306,8.254-2.923,11.485-11.178,11.178a43.071,43.071,0,0,0-3.092,5.285c4.295,7.074,3.036,11.6-4.274,15.7-.081,1.075-.135,2.157-.135,3.25s.054,2.176.135,3.25c7.31,4.11,8.569,8.629,4.273,15.7a43.239,43.239,0,0,0,3.092,5.284c8.256-.306,11.485,2.924,11.179,11.178a42.907,42.907,0,0,0,5.283,3.091c7.075-4.295,11.6-3.035,15.705,4.276,1.073.081,2.155.135,3.249.135s2.176-.054,3.25-.135c4.109-7.311,8.631-8.571,15.7-4.276a42.845,42.845,0,0,0,5.284-3.091c-.305-8.254,2.924-11.484,11.178-11.178a42.6,42.6,0,0,0,3.092-5.284C246.81,346.745,248.07,342.226,255.38,338.115ZM212.6,371.96a37.093,37.093,0,1,1,37.093-37.094A37.094,37.094,0,0,1,212.6,371.96Z" fill="#2b3d5f" opacity="0.3" style="mix-blend-mode: multiply;isolation: isolate"/>
      </g>
      <path id="Path_11918" data-name="Path 11918" d="M243.688,341.011a31.439,31.439,0,0,1-2.9,8.347" fill="none" stroke="#ffebd9" stroke-miterlimit="10" stroke-width="3"/>
      <path id="Path_11919" data-name="Path 11919" d="M212.6,303.181a31.687,31.687,0,0,1,31.686,31.685" fill="none" stroke="#ffebd9" stroke-miterlimit="10" stroke-width="3"/>
    </g>
  </g>
</svg>
