<svg xmlns="http://www.w3.org/2000/svg" width="20" height="15" viewBox="0 0 20 15">
  <g id="Group_2482" data-name="Group 2482" transform="translate(-87 -699)">
    <path id="Fill-1" d="M19.582,2.342A2.6,2.6,0,0,0,17.814.448C16.254,0,10,0,10,0S3.746,0,2.186.448A2.6,2.6,0,0,0,.418,2.342,29.839,29.839,0,0,0,0,7.5a29.839,29.839,0,0,0,.418,5.158,2.6,2.6,0,0,0,1.768,1.895C3.746,15,10,15,10,15s6.254,0,7.814-.448a2.6,2.6,0,0,0,1.768-1.895A29.831,29.831,0,0,0,20,7.5a29.831,29.831,0,0,0-.418-5.158" transform="translate(87 699)" fill="#fff"/>
    <path id="Fill-2" d="M0,6.9V0L5.517,3.448Z" transform="translate(94.877 702.827)" fill="#2b3d5f"/>
  </g>
</svg>
