<svg xmlns="http://www.w3.org/2000/svg" width="120" height="83" viewBox="0 0 120 83">
  <g id="Group_2526" data-name="Group 2526" transform="translate(-1005 -742)">
    <g id="Group_2525" data-name="Group 2525" transform="translate(1005 742)">
      <g id="Group_2521" data-name="Group 2521" transform="translate(33.753 0)">
        <g id="Group_2518" data-name="Group 2518" transform="translate(0 7.413)">
          <path id="Path_11821" data-name="Path 11821" d="M228.119,131.975q-4.08-5.017-4.077-14.187v-2.2H236.36v2.118q.076,4.862,1.2,6.976a4.194,4.194,0,0,0,4.077,2.115q2.957,0,4-2.155t1.039-7.014q0-5.1-1.559-7.566t-5.641-2.548a13.326,13.326,0,0,0-2.159-.078V98.586h1.921q4.238,0,5.838-2.2t1.6-7.211a12.239,12.239,0,0,0-1.158-6.036q-1.162-1.957-4.12-1.96a3.955,3.955,0,0,0-3.919,2.115,15.38,15.38,0,0,0-1.118,6.271v2.823H224.042V88.944q0-8.31,4.557-12.857t12.8-4.546q8.321,0,12.877,4.388t4.562,12.622a17.375,17.375,0,0,1-2.283,9.171,9.721,9.721,0,0,1-5.878,4.7q8.159,2.979,8.162,14.972,0,9.17-4.161,14.382t-13.2,5.211Q232.2,136.991,228.119,131.975Z" transform="translate(-224.042 -71.542)" fill="#fda14d"/>
        </g>
        <g id="Group_2520" data-name="Group 2520" transform="translate(4.957)">
          <g id="Group_2519" data-name="Group 2519">
            <path id="Path_11822" data-name="Path 11822" d="M244.773,136.356c-6.55,0-11.368-1.844-14.318-5.473-2.883-3.547-4.346-8.578-4.346-14.947v-2.2a1.217,1.217,0,0,1,1.228-1.2h12.318a1.215,1.215,0,0,1,1.226,1.2v2.119c.05,3.018.405,5.186,1.062,6.426.331.633,1,1.468,2.988,1.468,1.957,0,2.588-.837,2.89-1.468.614-1.268.923-3.458.923-6.5,0-3.156-.465-5.49-1.379-6.939-.808-1.287-2.322-1.933-4.619-1.978a1.464,1.464,0,0,1-.288-.04c-.259-.031-.875-.04-1.847-.04a1.217,1.217,0,0,1-1.228-1.2V96.718a1.219,1.219,0,0,1,1.228-1.2h1.921c2.391,0,4.022-.569,4.84-1.691.909-1.251,1.372-3.443,1.372-6.518a11.258,11.258,0,0,0-1-5.44c-.345-.579-1.041-1.359-3.058-1.359-1.89,0-2.511.821-2.813,1.437a14.448,14.448,0,0,0-1,5.777v2.8a1.215,1.215,0,0,1-1.226,1.2H227.337a1.217,1.217,0,0,1-1.228-1.2V87.07c0-5.84,1.653-10.453,4.909-13.71s7.867-4.909,13.673-4.909c5.852,0,10.474,1.595,13.738,4.737s4.929,7.691,4.929,13.487a18.654,18.654,0,0,1-2.454,9.8,11.952,11.952,0,0,1-4.022,4.163c4.3,2.672,6.476,7.675,6.476,14.91,0,6.36-1.489,11.452-4.42,15.136C255.933,134.446,251.17,136.356,244.773,136.356Zm-16.208-21.413v.993c0,5.812,1.281,10.335,3.809,13.447,2.463,3.029,6.634,4.565,12.4,4.565,5.679,0,9.682-1.555,12.229-4.751,2.588-3.246,3.9-7.839,3.9-13.651,0-7.513-2.408-12.045-7.361-13.856a1.2,1.2,0,0,1,.113-2.289,8.488,8.488,0,0,0,5.14-4.161,16.333,16.333,0,0,0,2.108-8.564c0-5.125-1.41-9.086-4.192-11.767s-6.835-4.048-12.018-4.048c-5.125,0-9.135,1.409-11.92,4.187s-4.207,6.835-4.207,12.024v2.249h9.862V87.7a16.34,16.34,0,0,1,1.242-6.8c.624-1.277,2.005-2.8,5.022-2.8s4.487,1.392,5.18,2.559c.895,1.517,1.326,3.69,1.326,6.647,0,3.636-.6,6.226-1.828,7.915-1.307,1.795-3.607,2.7-6.838,2.7h-.693v6.466a7.959,7.959,0,0,1,1.113.071c3.07.094,5.257,1.141,6.5,3.114,1.175,1.861,1.744,4.547,1.744,8.206,0,3.453-.379,5.918-1.156,7.534-.628,1.3-2.022,2.846-5.111,2.846-3.065,0-4.5-1.505-5.166-2.768-.847-1.6-1.283-4.055-1.338-7.515v-.934Z" transform="translate(-226.109 -68.451)" fill="#2b3d5f"/>
          </g>
        </g>
      </g>
      <g id="Group_2522" data-name="Group 2522" transform="translate(80.408 19.319)">
        <path id="Path_11823" data-name="Path 11823" d="M248.984,78.169a1.363,1.363,0,1,1-1.362,1.365A1.365,1.365,0,0,1,248.984,78.169Z" transform="translate(-237.724 -75.517)" fill="#ffebd9"/>
        <path id="Path_11824" data-name="Path 11824" d="M255.69,77.956a1.874,1.874,0,1,1-1.875,1.876A1.875,1.875,0,0,1,255.69,77.956Z" transform="translate(-229.064 -75.815)" fill="#ffebd9"/>
        <path id="Path_11825" data-name="Path 11825" d="M247.073,94.879A3.58,3.58,0,1,1,243.5,98.46,3.579,3.579,0,0,1,247.073,94.879Z" transform="translate(-243.495 -52.15)" fill="#ffebd9"/>
        <path id="Path_11826" data-name="Path 11826" d="M253.482,94.879A3.58,3.58,0,1,1,249.9,98.46,3.579,3.579,0,0,1,253.482,94.879Z" transform="translate(-234.537 -52.15)" fill="#ffebd9"/>
        <path id="Path_11827" data-name="Path 11827" d="M260.881,94.169a5.282,5.282,0,1,1-5.284,5.284A5.283,5.283,0,0,1,260.881,94.169Z" transform="translate(-226.572 -53.143)" fill="#ffebd9"/>
        <circle id="Ellipse_21" data-name="Ellipse 21" cx="3.792" cy="3.792" r="3.792" transform="translate(7.469 27.151)" fill="#ffebd9"/>
        <circle id="Ellipse_22" data-name="Ellipse 22" cx="5.283" cy="5.283" r="5.283" transform="translate(21.343 25.66)" fill="#ffebd9"/>
        <circle id="Ellipse_23" data-name="Ellipse 23" cx="1.576" cy="1.576" r="1.576" transform="translate(2.002 14.002)" fill="#ffebd9"/>
        <circle id="Ellipse_24" data-name="Ellipse 24" cx="1.576" cy="1.576" r="1.576" transform="translate(17.368 14.002)" fill="#ffebd9"/>
        <path id="Path_11828" data-name="Path 11828" d="M259.067,82.653a2.173,2.173,0,1,1-2.173,2.173A2.171,2.171,0,0,1,259.067,82.653Z" transform="translate(-224.758 -69.247)" fill="#ffebd9"/>
        <circle id="Ellipse_25" data-name="Ellipse 25" cx="0.213" cy="0.213" r="0.213" transform="translate(26.413)" fill="#ffebd9"/>
      </g>
      <g id="Group_2523" data-name="Group 2523" transform="translate(0 33.527)">
        <path id="Path_11829" data-name="Path 11829" d="M219.3,83.805a1.01,1.01,0,1,0,1.01,1.01A1.011,1.011,0,0,0,219.3,83.805Z" transform="translate(-198.334 -81.843)" fill="#ffebd9"/>
        <path id="Path_11830" data-name="Path 11830" d="M214.777,83.648a1.387,1.387,0,1,0,1.389,1.386A1.387,1.387,0,0,0,214.777,83.648Z" transform="translate(-205.183 -82.063)" fill="#ffebd9"/>
        <path id="Path_11831" data-name="Path 11831" d="M222.624,96.171a2.648,2.648,0,1,0,2.65,2.648A2.648,2.648,0,0,0,222.624,96.171Z" transform="translate(-195.975 -64.551)" fill="#ffebd9"/>
        <path id="Path_11832" data-name="Path 11832" d="M217.885,96.171a2.648,2.648,0,1,0,2.648,2.648A2.649,2.649,0,0,0,217.885,96.171Z" transform="translate(-202.605 -64.551)" fill="#ffebd9"/>
        <circle id="Ellipse_26" data-name="Ellipse 26" cx="3.91" cy="3.91" r="3.91" transform="translate(0 30.358)" fill="#ffebd9"/>
        <path id="Path_11833" data-name="Path 11833" d="M220.346,91.364a2.806,2.806,0,1,0,2.806,2.806A2.807,2.807,0,0,0,220.346,91.364Z" transform="translate(-199.382 -71.273)" fill="#ffebd9"/>
        <circle id="Ellipse_27" data-name="Ellipse 27" cx="3.91" cy="3.91" r="3.91" transform="translate(5.685 18.988)" fill="#ffebd9"/>
        <circle id="Ellipse_28" data-name="Ellipse 28" cx="1.167" cy="1.167" r="1.167" transform="translate(25.483 10.361)" fill="#ffebd9"/>
        <circle id="Ellipse_29" data-name="Ellipse 29" cx="1.167" cy="1.167" r="1.167" transform="translate(14.113 10.361)" fill="#ffebd9"/>
        <path id="Path_11834" data-name="Path 11834" d="M212.536,87.123a1.608,1.608,0,1,0,1.607,1.607A1.607,1.607,0,0,0,212.536,87.123Z" transform="translate(-208.626 -77.203)" fill="#ffebd9"/>
        <circle id="Ellipse_30" data-name="Ellipse 30" cx="0.158" cy="0.158" r="0.158" transform="translate(9.437)" fill="#ffebd9"/>
      </g>
      <g id="Group_2524" data-name="Group 2524" transform="translate(22.979 80.546)">
        <line id="Line_5" data-name="Line 5" x2="66.273" transform="translate(1.225 1.227)" fill="#ffe100"/>
        <path id="Path_11835" data-name="Path 11835" d="M287.047,105.046H220.776a1.227,1.227,0,0,1,0-2.454h66.272a1.227,1.227,0,1,1,0,2.454Z" transform="translate(-219.55 -102.592)" fill="#2b3d5f"/>
      </g>
    </g>
  </g>
</svg>
