<svg xmlns="http://www.w3.org/2000/svg" width="120" height="83" viewBox="0 0 120 83">
  <g id="Group_2508" data-name="Group 2508" transform="translate(-209.969 -16.485)">
    <g id="Group_2504" data-name="Group 2504" transform="translate(247.201 16.485)">
      <g id="Group_2501" data-name="Group 2501" transform="translate(0 7.411)">
        <path id="Path_11787" data-name="Path 11787" d="M234.849,32.282a17.519,17.519,0,0,1-2.4.993q-1.68.6-2.559.914a33.722,33.722,0,0,0-4.4,1.586v-9.13a69.338,69.338,0,0,0,6.6-3.217,21.521,21.521,0,0,0,5.478-3.853h9.677V83.9h-12.4Z" transform="translate(-225.493 -19.575)" fill="#fda14d"/>
      </g>
      <g id="Group_2503" data-name="Group 2503" transform="translate(4.957)">
        <g id="Group_2502" data-name="Group 2502">
          <path id="Path_11788" data-name="Path 11788" d="M250.541,83.267H238.146a1.225,1.225,0,0,1-1.228-1.22V32.275c-.235.091-.487.183-.76.279l-2.552.912a31.676,31.676,0,0,0-4.233,1.51,1.232,1.232,0,0,1-1.214-.021,1.216,1.216,0,0,1-.6-1.048V24.774a1.221,1.221,0,0,1,.76-1.127,68.7,68.7,0,0,0,6.478-3.163,20.451,20.451,0,0,0,5.156-3.6,1.234,1.234,0,0,1,.909-.4h9.677a1.223,1.223,0,0,1,1.228,1.217V82.048A1.225,1.225,0,0,1,250.541,83.267Zm-11.169-2.439h9.944V18.922h-7.929a24.709,24.709,0,0,1-5.413,3.7c-2.262,1.227-4.259,2.218-5.957,2.956v6.505c.664-.236,1.566-.538,2.8-.927l2.521-.9a16.118,16.118,0,0,0,2.211-.912,1.227,1.227,0,0,1,1.221.014,1.214,1.214,0,0,1,.6,1.05Z" transform="translate(-227.56 -16.485)" fill="#2b3d5f"/>
        </g>
      </g>
    </g>
    <g id="Group_2505" data-name="Group 2505" transform="translate(290.377 35.801)">
      <path id="Path_11789" data-name="Path 11789" d="M248.984,25.836a1.363,1.363,0,1,1-1.362,1.362A1.363,1.363,0,0,1,248.984,25.836Z" transform="translate(-237.724 -23.183)" fill="#ffebd9"/>
      <path id="Path_11790" data-name="Path 11790" d="M255.691,25.623a1.874,1.874,0,1,1-1.876,1.873A1.875,1.875,0,0,1,255.691,25.623Z" transform="translate(-229.064 -23.481)" fill="#ffebd9"/>
      <path id="Path_11791" data-name="Path 11791" d="M247.073,42.546a3.578,3.578,0,1,1-3.578,3.578A3.578,3.578,0,0,1,247.073,42.546Z" transform="translate(-243.495 0.183)" fill="#ffebd9"/>
      <path id="Path_11792" data-name="Path 11792" d="M253.482,42.546a3.578,3.578,0,1,1-3.581,3.578A3.578,3.578,0,0,1,253.482,42.546Z" transform="translate(-234.537 0.183)" fill="#ffebd9"/>
      <path id="Path_11793" data-name="Path 11793" d="M260.881,41.835a5.284,5.284,0,1,1-5.284,5.284A5.284,5.284,0,0,1,260.881,41.835Z" transform="translate(-226.572 -0.811)" fill="#ffebd9"/>
      <path id="Path_11794" data-name="Path 11794" d="M250.4,36.051a3.792,3.792,0,1,1-3.792,3.792A3.791,3.791,0,0,1,250.4,36.051Z" transform="translate(-239.141 -8.899)" fill="#ffebd9"/>
      <path id="Path_11795" data-name="Path 11795" d="M257.678,35.429a5.282,5.282,0,1,1-5.284,5.284A5.283,5.283,0,0,1,257.678,35.429Z" transform="translate(-231.051 -9.769)" fill="#ffebd9"/>
      <circle id="Ellipse_5" data-name="Ellipse 5" cx="1.576" cy="1.576" r="1.576" transform="translate(2.002 14.002)" fill="#ffebd9"/>
      <circle id="Ellipse_6" data-name="Ellipse 6" cx="1.576" cy="1.576" r="1.576" transform="translate(17.367 14.002)" fill="#ffebd9"/>
      <path id="Path_11796" data-name="Path 11796" d="M259.067,30.319a2.173,2.173,0,1,1-2.173,2.173A2.172,2.172,0,0,1,259.067,30.319Z" transform="translate(-224.758 -16.914)" fill="#ffebd9"/>
      <circle id="Ellipse_7" data-name="Ellipse 7" cx="0.213" cy="0.213" r="0.213" transform="translate(26.413)" fill="#ffebd9"/>
    </g>
    <g id="Group_2506" data-name="Group 2506" transform="translate(209.969 50.009)">
      <path id="Path_11797" data-name="Path 11797" d="M219.3,31.472a1.009,1.009,0,1,0,1.01,1.01A1.01,1.01,0,0,0,219.3,31.472Z" transform="translate(-198.334 -29.51)" fill="#ffebd9"/>
      <circle id="Ellipse_8" data-name="Ellipse 8" cx="1.387" cy="1.387" r="1.387" transform="translate(8.207 1.584)" fill="#ffebd9"/>
      <path id="Path_11798" data-name="Path 11798" d="M222.624,43.837a2.649,2.649,0,1,0,2.65,2.65A2.651,2.651,0,0,0,222.624,43.837Z" transform="translate(-195.975 -12.219)" fill="#ffebd9"/>
      <path id="Path_11799" data-name="Path 11799" d="M217.885,43.837a2.649,2.649,0,1,0,2.648,2.65A2.651,2.651,0,0,0,217.885,43.837Z" transform="translate(-202.605 -12.219)" fill="#ffebd9"/>
      <circle id="Ellipse_9" data-name="Ellipse 9" cx="3.91" cy="3.91" r="3.91" transform="translate(0 30.357)" fill="#ffebd9"/>
      <path id="Path_11800" data-name="Path 11800" d="M220.346,39.031a2.806,2.806,0,1,0,2.806,2.806A2.807,2.807,0,0,0,220.346,39.031Z" transform="translate(-199.382 -18.94)" fill="#ffebd9"/>
      <circle id="Ellipse_10" data-name="Ellipse 10" cx="3.91" cy="3.91" r="3.91" transform="translate(5.685 18.987)" fill="#ffebd9"/>
      <circle id="Ellipse_11" data-name="Ellipse 11" cx="1.167" cy="1.167" r="1.167" transform="translate(25.483 10.36)" fill="#ffebd9"/>
      <circle id="Ellipse_12" data-name="Ellipse 12" cx="1.167" cy="1.167" r="1.167" transform="translate(14.113 10.36)" fill="#ffebd9"/>
      <path id="Path_11801" data-name="Path 11801" d="M212.536,34.79a1.608,1.608,0,1,0,1.607,1.607A1.607,1.607,0,0,0,212.536,34.79Z" transform="translate(-208.626 -24.87)" fill="#ffebd9"/>
      <path id="Path_11802" data-name="Path 11802" d="M214.06,30.654a.157.157,0,1,0,.158.156A.156.156,0,0,0,214.06,30.654Z" transform="translate(-204.466 -30.654)" fill="#ffebd9"/>
    </g>
    <g id="Group_2507" data-name="Group 2507" transform="translate(232.948 97.029)">
      <line id="Line_3" data-name="Line 3" x2="66.273" transform="translate(1.225 1.226)" fill="#ffe100"/>
      <path id="Path_11803" data-name="Path 11803" d="M287.047,52.715H220.776a1.228,1.228,0,0,1,0-2.456h66.271a1.228,1.228,0,1,1,0,2.456Z" transform="translate(-219.55 -50.259)" fill="#2b3d5f"/>
    </g>
  </g>
</svg>
