<svg id="Group_2571" data-name="Group 2571" xmlns="http://www.w3.org/2000/svg" width="40.283" height="40.283" viewBox="0 0 40.283 40.283">
  <path id="Path_11890" data-name="Path 11890" d="M0,0H40.283V40.283H0Z" fill="none"/>
  <ellipse id="Ellipse_59" data-name="Ellipse 59" cx="8.392" cy="5" rx="8.392" ry="5" transform="translate(18.463 5)" fill="none" stroke="#fda14d" stroke-linecap="round" stroke-linejoin="round" stroke-width="2"/>
  <path id="Path_11891" data-name="Path 11891" d="M11,6v6.714c0,2.781,3.758,5.035,8.392,5.035s8.392-2.254,8.392-5.035V6" transform="translate(7.463 4.071)" fill="none" stroke="#fda14d" stroke-linecap="round" stroke-linejoin="round" stroke-width="2"/>
  <path id="Path_11892" data-name="Path 11892" d="M11,10v6.714c0,2.781,3.758,5.035,8.392,5.035s8.392-2.254,8.392-5.035V10" transform="translate(7.463 6.785)" fill="none" stroke="#fda14d" stroke-linecap="round" stroke-linejoin="round" stroke-width="2"/>
  <path id="Path_11893" data-name="Path 11893" d="M11,14v6.714c0,2.781,3.758,5.035,8.392,5.035s8.392-2.254,8.392-5.035V14" transform="translate(7.463 9.498)" fill="none" stroke="#fda14d" stroke-linecap="round" stroke-linejoin="round" stroke-width="2"/>
  <path id="Path_11894" data-name="Path 11894" d="M9.714,9h-4.2a2.518,2.518,0,0,0,0,5.035H7.2a2.518,2.518,0,0,1,0,5.035H3" transform="translate(2.035 6.106)" fill="none" stroke="#fda14d" stroke-linecap="round" stroke-linejoin="round" stroke-width="2"/>
  <path id="Path_11895" data-name="Path 11895" d="M5,19.749v1.678M5,8V9.678" transform="translate(3.392 5.428)" fill="none" stroke="#fda14d" stroke-linecap="round" stroke-linejoin="round" stroke-width="2"/>
</svg>
