<svg xmlns="http://www.w3.org/2000/svg" width="100" height="100" viewBox="0 0 100 100">
  <g id="Group_2490" data-name="Group 2490" transform="translate(-771 -2222)">
    <rect id="Rectangle_53" data-name="Rectangle 53" width="100" height="100" transform="translate(771 2222)" fill="#ecf0ff" opacity="0"/>
    <g id="Discussion_Class" data-name="Discussion Class" transform="translate(789 2240)">
      <path id="Path_11751" data-name="Path 11751" d="M55.75,52.67c2.52-2,2.25-4.5,2.25-6.67a6,6,0,0,0-12,0c0,2.24-.27,4.65,2.25,6.67A11.08,11.08,0,0,0,42,58.44a11.08,11.08,0,0,0-6.25-5.77c2.52-2,2.25-4.5,2.25-6.67a6,6,0,0,0-12,0c0,2.24-.27,4.65,2.25,6.67A11.08,11.08,0,0,0,22,58.44a11.08,11.08,0,0,0-6.25-5.77c2.52-2,2.25-4.5,2.25-6.67A6,6,0,0,0,6,46c0,2.24-.27,4.65,2.25,6.67A11,11,0,0,0,1,63a1,1,0,0,0,2,0,9,9,0,1,1,18,0,1,1,0,0,0,2,0,9,9,0,0,1,18,0,1,1,0,1,0,2,0,9,9,0,0,1,18,0,1,1,0,0,0,2,0,11,11,0,0,0-7.25-10.33ZM8,48V46a4,4,0,0,1,8,0v2a4,4,0,0,1-8,0Zm20,0V46a4,4,0,0,1,8,0v2a4,4,0,0,1-8,0Zm20,0V46a4,4,0,0,1,8,0v2a4,4,0,0,1-8,0Z" fill="#2b3d5f"/>
      <path id="Path_11752" data-name="Path 11752" d="M6,61v2a1,1,0,0,0,2,0V61a1,1,0,0,0-2,0Z" fill="#2b3d5f"/>
      <path id="Path_11753" data-name="Path 11753" d="M16,61v2a1,1,0,0,0,2,0V61a1,1,0,0,0-2,0Z" fill="#2b3d5f"/>
      <path id="Path_11754" data-name="Path 11754" d="M26,61v2a1,1,0,0,0,2,0V61a1,1,0,0,0-2,0Z" fill="#2b3d5f"/>
      <path id="Path_11755" data-name="Path 11755" d="M36,61v2a1,1,0,0,0,2,0V61a1,1,0,0,0-2,0Z" fill="#2b3d5f"/>
      <path id="Path_11756" data-name="Path 11756" d="M46,61v2a1,1,0,0,0,2,0V61a1,1,0,0,0-2,0Z" fill="#2b3d5f"/>
      <path id="Path_11757" data-name="Path 11757" d="M56,61v2a1,1,0,0,0,2,0V61a1,1,0,0,0-2,0Z" fill="#2b3d5f"/>
      <path id="Path_11758" data-name="Path 11758" d="M47,8.09H44v-3a1,1,0,0,0-1-1c-5.54,0-7-.34-11,3.59-4-3.93-5.46-3.59-11-3.59a1,1,0,0,0-1,1v3H17a1,1,0,0,0-1,1v16a1,1,0,0,0,1,1H47a1,1,0,0,0,1-1v-16A1,1,0,0,0,47,8.09Zm-5-2v14c-3.9,0-5.86-.21-9,2.64V9.5C36.59,5.92,37.29,6.09,42,6.09Zm-20,0c4.68,0,5.38-.2,9,3.41V22.73c-3.14-2.85-5.11-2.64-9-2.64Zm-4,4h2v11a1,1,0,0,0,1,1c4.27,0,5.85-.37,8.52,2H18Zm28,14H34.48c2.69-2.39,4.32-2,8.52-2a1,1,0,0,0,1-1v-11h2Z" fill="#2b3d5f"/>
      <path id="Path_11759" data-name="Path 11759" d="M59,0H5C1.87,0,0,1.5,0,4V26a5,5,0,0,0,5,5H8.38l2.73,5.45a1,1,0,0,0,1.78,0L15.62,31H28.38l2.73,5.45a1,1,0,0,0,1.78,0L35.62,31H48.38l2.73,5.45a1,1,0,0,0,1.78,0L55.62,31H59a5,5,0,0,0,5-5V4C64,1.5,62.13,0,59,0Zm3,26a3,3,0,0,1-3,3H55c-.82,0-.78.31-3,4.76C49.73,29.23,49.81,29,49,29c-15,0-14.51-.22-14.89.55L32,33.76l-2.11-4.21C29.51,28.77,30,29,15,29c-.82,0-.78.31-3,4.76C9.73,29.23,9.81,29,9,29H5a3,3,0,0,1-3-3V4c0-.5,0-2,3-2H59c3,0,3,1.5,3,2Z" fill="#2b3d5f"/>
    </g>
  </g>
</svg>
