<svg xmlns="http://www.w3.org/2000/svg" width="120" height="83" viewBox="0 0 120 83">
  <g id="Group_2517" data-name="Group 2517" transform="translate(-509 -762)">
    <g id="Group_2516" data-name="Group 2516" transform="translate(509 762)">
      <g id="Group_2512" data-name="Group 2512" transform="translate(33.989 0)">
        <g id="Group_2509" data-name="Group 2509" transform="translate(0 7.413)">
          <path id="Path_11804" data-name="Path 11804" d="M298.474,75.015,314.231,51.25l1.2-1.807a65.314,65.314,0,0,0,4.279-7.335,14.679,14.679,0,0,0,1.4-6.394,7.709,7.709,0,0,0-1.2-4.667,4.118,4.118,0,0,0-3.518-1.609,4.664,4.664,0,0,0-4.559,2.512,15.386,15.386,0,0,0-1.278,6.9v2.905H298.474V38.62q0-8.945,4.281-14.161t13.4-5.217q8.4,0,12.8,4.354t4.4,12.354a20.2,20.2,0,0,1-1.84,8.748,74.528,74.528,0,0,1-5.761,9.612l-.88,1.331L312.392,74h19.2v9.569H298.474Z" transform="translate(-298.474 -19.242)" fill="#fda14d"/>
        </g>
        <g id="Group_2511" data-name="Group 2511" transform="translate(4.96)">
          <g id="Group_2510" data-name="Group 2510">
            <path id="Path_11805" data-name="Path 11805" d="M334.882,82.933H301.77a1.218,1.218,0,0,1-1.228-1.205V73.169a1.176,1.176,0,0,1,.2-.657L317.7,46.922a64.277,64.277,0,0,0,4.195-7.194,13.548,13.548,0,0,0,1.283-5.887,6.628,6.628,0,0,0-.962-3.957,2.878,2.878,0,0,0-2.528-1.118,3.456,3.456,0,0,0-3.461,1.846,14.384,14.384,0,0,0-1.151,6.37v2.907a1.215,1.215,0,0,1-1.226,1.2H301.77a1.216,1.216,0,0,1-1.228-1.2v-3.14c0-6.222,1.533-11.243,4.55-14.924,3.084-3.766,7.915-5.673,14.354-5.673,5.912,0,10.512,1.584,13.668,4.715s4.754,7.568,4.754,13.21a21.506,21.506,0,0,1-1.952,9.261,75.858,75.858,0,0,1-5.854,9.783l-.868,1.316L317.978,70.947h16.9a1.218,1.218,0,0,1,1.228,1.205v9.576A1.219,1.219,0,0,1,334.882,82.933ZM303,80.523h30.661V73.355H315.685a1.229,1.229,0,0,1-1.082-.636,1.183,1.183,0,0,1,.062-1.236l13.347-19.691a73.637,73.637,0,0,0,5.677-9.47,19.139,19.139,0,0,0,1.724-8.246c0-4.981-1.36-8.858-4.044-11.516s-6.691-4-11.925-4c-5.66,0-9.845,1.608-12.443,4.771C304.346,26.577,303,31.089,303,36.748v1.935h9.625v-1.7a16.4,16.4,0,0,1,1.408-7.446,5.855,5.855,0,0,1,5.658-3.178,5.37,5.37,0,0,1,4.509,2.1,8.76,8.76,0,0,1,1.437,5.381,15.953,15.953,0,0,1-1.513,6.909,67.3,67.3,0,0,1-4.358,7.481L303,73.527Z" transform="translate(-300.542 -16.151)" fill="#2b3d5f"/>
          </g>
        </g>
      </g>
      <g id="Group_2513" data-name="Group 2513" transform="translate(80.408 19.316)">
        <path id="Path_11806" data-name="Path 11806" d="M323.32,25.836a1.363,1.363,0,1,1-1.365,1.362A1.361,1.361,0,0,1,323.32,25.836Z" transform="translate(-312.057 -23.183)" fill="#ffebd9"/>
        <path id="Path_11807" data-name="Path 11807" d="M330.022,25.623a1.874,1.874,0,1,1-1.873,1.873A1.875,1.875,0,0,1,330.022,25.623Z" transform="translate(-303.395 -23.481)" fill="#ffebd9"/>
        <path id="Path_11808" data-name="Path 11808" d="M321.406,42.546a3.578,3.578,0,1,1-3.578,3.578A3.579,3.579,0,0,1,321.406,42.546Z" transform="translate(-317.828 0.184)" fill="#ffebd9"/>
        <path id="Path_11809" data-name="Path 11809" d="M327.813,42.546a3.578,3.578,0,1,1-3.578,3.578A3.578,3.578,0,0,1,327.813,42.546Z" transform="translate(-308.869 0.184)" fill="#ffebd9"/>
        <path id="Path_11810" data-name="Path 11810" d="M335.212,41.835a5.284,5.284,0,1,1-5.281,5.284A5.284,5.284,0,0,1,335.212,41.835Z" transform="translate(-300.903 -0.811)" fill="#ffebd9"/>
        <path id="Path_11811" data-name="Path 11811" d="M324.735,36.051a3.792,3.792,0,1,1-3.792,3.792A3.791,3.791,0,0,1,324.735,36.051Z" transform="translate(-313.472 -8.899)" fill="#ffebd9"/>
        <path id="Path_11812" data-name="Path 11812" d="M332.011,35.429a5.282,5.282,0,1,1-5.284,5.284A5.283,5.283,0,0,1,332.011,35.429Z" transform="translate(-305.384 -9.769)" fill="#ffebd9"/>
        <circle id="Ellipse_13" data-name="Ellipse 13" cx="1.576" cy="1.576" r="1.576" transform="translate(2.003 14.002)" fill="#ffebd9"/>
        <circle id="Ellipse_14" data-name="Ellipse 14" cx="1.576" cy="1.576" r="1.576" transform="translate(17.368 14.002)" fill="#ffebd9"/>
        <circle id="Ellipse_15" data-name="Ellipse 15" cx="2.173" cy="2.173" r="2.173" transform="translate(32.137 13.405)" fill="#ffebd9"/>
        <path id="Path_11813" data-name="Path 11813" d="M329.054,24.73a.213.213,0,1,1-.213.213A.214.214,0,0,1,329.054,24.73Z" transform="translate(-302.428 -24.73)" fill="#ffebd9"/>
      </g>
      <g id="Group_2514" data-name="Group 2514" transform="translate(0 33.524)">
        <path id="Path_11814" data-name="Path 11814" d="M293.63,31.472a1.009,1.009,0,1,0,1.01,1.01A1.008,1.008,0,0,0,293.63,31.472Z" transform="translate(-272.667 -29.51)" fill="#ffebd9"/>
        <path id="Path_11815" data-name="Path 11815" d="M289.113,31.314A1.387,1.387,0,1,0,290.5,32.7,1.388,1.388,0,0,0,289.113,31.314Z" transform="translate(-279.517 -29.731)" fill="#ffebd9"/>
        <path id="Path_11816" data-name="Path 11816" d="M296.959,43.837a2.649,2.649,0,1,0,2.648,2.65A2.651,2.651,0,0,0,296.959,43.837Z" transform="translate(-270.309 -12.219)" fill="#ffebd9"/>
        <circle id="Ellipse_16" data-name="Ellipse 16" cx="2.649" cy="2.649" r="2.649" transform="translate(12.631 31.619)" fill="#ffebd9"/>
        <circle id="Ellipse_17" data-name="Ellipse 17" cx="3.91" cy="3.91" r="3.91" transform="translate(0 30.358)" fill="#ffebd9"/>
        <path id="Path_11817" data-name="Path 11817" d="M294.679,39.031a2.806,2.806,0,1,0,2.806,2.806A2.807,2.807,0,0,0,294.679,39.031Z" transform="translate(-273.715 -18.94)" fill="#ffebd9"/>
        <circle id="Ellipse_18" data-name="Ellipse 18" cx="3.91" cy="3.91" r="3.91" transform="translate(5.685 18.987)" fill="#ffebd9"/>
        <circle id="Ellipse_19" data-name="Ellipse 19" cx="1.167" cy="1.167" r="1.167" transform="translate(25.483 10.36)" fill="#ffebd9"/>
        <circle id="Ellipse_20" data-name="Ellipse 20" cx="1.167" cy="1.167" r="1.167" transform="translate(14.113 10.36)" fill="#ffebd9"/>
        <path id="Path_11818" data-name="Path 11818" d="M286.869,34.79a1.608,1.608,0,1,0,1.609,1.607A1.607,1.607,0,0,0,286.869,34.79Z" transform="translate(-282.96 -24.87)" fill="#ffebd9"/>
        <path id="Path_11819" data-name="Path 11819" d="M288.4,30.654a.157.157,0,1,0,.156.156A.156.156,0,0,0,288.4,30.654Z" transform="translate(-278.8 -30.654)" fill="#ffebd9"/>
      </g>
      <g id="Group_2515" data-name="Group 2515" transform="translate(22.978 80.544)">
        <line id="Line_4" data-name="Line 4" x2="66.273" transform="translate(1.226 1.226)" fill="#ffe100"/>
        <path id="Path_11820" data-name="Path 11820" d="M361.383,52.715H295.109a1.228,1.228,0,0,1,0-2.456h66.274a1.228,1.228,0,0,1,0,2.456Z" transform="translate(-293.883 -50.259)" fill="#2b3d5f"/>
      </g>
    </g>
  </g>
</svg>
