<svg xmlns="http://www.w3.org/2000/svg" width="100" height="100" viewBox="0 0 100 100">
  <g id="Group_2605" data-name="Group 2605" transform="translate(-265 -2985)">
    <rect id="Rectangle_60" data-name="Rectangle 60" width="100" height="100" transform="translate(265 2985)" fill="#fff"/>
    <g id="Group_2598" data-name="Group 2598" transform="translate(229.873 2936.697)">
      <g id="Group_2597" data-name="Group 2597">
        <g id="Group_2587" data-name="Group 2587">
          <g id="Group_2586" data-name="Group 2586">
            <path id="Rectangle_85" data-name="Rectangle 85" d="M2.532,0H82.22a2.532,2.532,0,0,1,2.532,2.532v50.7a2.533,2.533,0,0,1-2.533,2.533H2.533A2.533,2.533,0,0,1,0,53.233V2.532A2.532,2.532,0,0,1,2.532,0Z" transform="translate(42.751 64.414)" fill="#2b3d5f"/>
            <rect id="Rectangle_86" data-name="Rectangle 86" width="78.639" height="49.52" transform="translate(45.807 67.537)" fill="#fafbff"/>
            <path id="Path_11920" data-name="Path 11920" d="M45.807,67.537v49.52h78.639Z" fill="#fafbff" style="mix-blend-mode: multiply;isolation: isolate"/>
          </g>
        </g>
        <g id="Group_2596" data-name="Group 2596">
          <rect id="Rectangle_87" data-name="Rectangle 87" width="50.638" height="31.888" transform="translate(62.116 78.091)" fill="#aeb0b3" style="mix-blend-mode: multiply;isolation: isolate"/>
          <rect id="Rectangle_88" data-name="Rectangle 88" width="50.639" height="33.88" transform="translate(60.583 74.195)" fill="#ffebd9"/>
          <path id="Path_11942" data-name="Path 11942" d="M0,0H50.639V3.235H0Z" transform="translate(60.583 74.195)" fill="#fda14d"/>
          <g id="Group_2589" data-name="Group 2589">
            <rect id="Rectangle_90" data-name="Rectangle 90" width="14.436" height="5.417" transform="translate(78.684 99.311)" fill="#37b899"/>
            <rect id="Rectangle_91" data-name="Rectangle 91" width="14.436" height="2.709" transform="translate(78.684 102.019)" fill="#37b899"/>
            <g id="Group_2588" data-name="Group 2588">
              <path id="Path_11921" data-name="Path 11921" d="M81.029,100.848h.3l.217,1.539.259-1.539h.283l-.435,2.081h-.215Z" fill="#fff"/>
              <path id="Path_11922" data-name="Path 11922" d="M82.242,100.848H82.5v2.081h-.261Z" fill="#fff"/>
              <path id="Path_11923" data-name="Path 11923" d="M82.848,100.848h.759v.262h-.479v.6h.413v.24h-.413v.715h.479v.259h-.759Z" fill="#fff"/>
              <path id="Path_11924" data-name="Path 11924" d="M84.234,102.929H84l-.369-2.081h.281l.217,1.561.218-1.561h.217l.237,1.539.195-1.539h.284l-.369,2.081h-.239l-.218-1.538Z" fill="#fff"/>
              <path id="Path_11925" data-name="Path 11925" d="M86.056,100.848h.237l.305,1.517.259-1.517h.262l.192,2.081H87.03l-.066-1.431-.258,1.431h-.2l-.28-1.431-.066,1.431h-.281Z" fill="#fff"/>
              <path id="Path_11926" data-name="Path 11926" d="M88,100.848a.439.439,0,0,1,.41.269,1.924,1.924,0,0,1,.132.819,2.294,2.294,0,0,1-.1.745.39.39,0,0,1-.4.292.475.475,0,0,1-.411-.224,1.483,1.483,0,0,1-.153-.791,2.5,2.5,0,0,1,.106-.8.409.409,0,0,1,.414-.308Zm0,.262c-.1,0-.161.078-.191.229a2.9,2.9,0,0,0-.045.552,2.025,2.025,0,0,0,.073.658c.048.125.11.187.185.187s.148-.07.185-.211a2.678,2.678,0,0,0,.055-.634,1.913,1.913,0,0,0-.066-.6c-.044-.118-.11-.178-.2-.178Z" fill="#fff"/>
              <path id="Path_11927" data-name="Path 11927" d="M88.827,100.848H89.2a.513.513,0,0,1,.388.127.631.631,0,0,1,.11.418.711.711,0,0,1-.076.348.322.322,0,0,1-.2.172l.388,1.016h-.3l-.391-1.062v1.062h-.281Zm.512.831a.523.523,0,0,0,.052-.264.572.572,0,0,0-.041-.246c-.028-.054-.089-.081-.184-.081h-.029l-.029,0v.691A.275.275,0,0,0,89.339,101.679Z" fill="#fff"/>
              <path id="Path_11928" data-name="Path 11928" d="M89.975,100.848h.759v.262h-.479v.6h.413v.24h-.413v.715h.479v.259h-.759Z" fill="#fff"/>
            </g>
          </g>
          <g id="Group_2590" data-name="Group 2590">
            <path id="Path_11929" data-name="Path 11929" d="M104.9,75.813a.938.938,0,1,1-.938-.938A.937.937,0,0,1,104.9,75.813Z" fill="#e1fef7"/>
            <path id="Path_11930" data-name="Path 11930" d="M107.418,75.813a.938.938,0,1,1-.938-.938A.938.938,0,0,1,107.418,75.813Z" fill="#e1fef7"/>
            <path id="Path_11931" data-name="Path 11931" d="M109.938,75.812a.937.937,0,1,1-.937-.938A.937.937,0,0,1,109.938,75.812Z" fill="#e1fef7"/>
          </g>
          <g id="Group_2595" data-name="Group 2595">
            <g id="Group_2593" data-name="Group 2593">
              <rect id="Rectangle_92" data-name="Rectangle 92" width="13.85" height="14.18" transform="translate(64.551 83.783)" fill="#fff"/>
              <g id="Group_2592" data-name="Group 2592">
                <g id="Group_2591" data-name="Group 2591">
                  <path id="Path_11932" data-name="Path 11932" d="M75.483,93.464a.758.758,0,0,0-.534-.621l-1.563-.529-.661-.248a3.507,3.507,0,0,1-1.249.5,3.481,3.481,0,0,1-1.247-.5l-.665.248L68,92.843a.756.756,0,0,0-.532.621l-.493,2.689h9Z" fill="#ffebd9"/>
                  <path id="Path_11933" data-name="Path 11933" d="M73.855,88.558a2.429,2.429,0,1,1-2.324-2.964A2.693,2.693,0,0,1,73.855,88.558Z" fill="#ffebd9"/>
                </g>
              </g>
            </g>
            <g id="Group_2594" data-name="Group 2594">
              <path id="Path_11934" data-name="Path 11934" d="M107.252,85.8a.537.537,0,0,1-.538.537H81.575a.537.537,0,0,1-.537-.537h0a.537.537,0,0,1,.537-.537h25.139a.537.537,0,0,1,.538.537Z" fill="#e1fef7"/>
              <path id="Path_11935" data-name="Path 11935" d="M107.252,89.183a.537.537,0,0,1-.538.537H81.575a.536.536,0,0,1-.537-.537h0a.536.536,0,0,1,.537-.537h25.139a.537.537,0,0,1,.538.537Z" fill="#e1fef7"/>
              <path id="Path_11936" data-name="Path 11936" d="M107.252,92.563a.537.537,0,0,1-.538.537H81.575a.536.536,0,0,1-.537-.537h0a.537.537,0,0,1,.537-.537h25.139a.537.537,0,0,1,.538.537Z" fill="#e1fef7"/>
              <path id="Path_11937" data-name="Path 11937" d="M107.252,95.943a.537.537,0,0,1-.538.537H81.575a.537.537,0,0,1-.537-.537h0a.537.537,0,0,1,.537-.537h25.139a.537.537,0,0,1,.538.537Z" fill="#e1fef7"/>
            </g>
          </g>
        </g>
      </g>
      <rect id="Rectangle_93" data-name="Rectangle 93" width="14.049" height="8.686" transform="translate(78.102 120.18)" fill="#88a1c8"/>
      <rect id="Rectangle_94" data-name="Rectangle 94" width="21.373" height="3.328" transform="translate(74.44 128.866)" fill="#2b3d5f"/>
    </g>
  </g>
</svg>
