<svg xmlns="http://www.w3.org/2000/svg" width="100" height="100" viewBox="0 0 100 100">
  <g id="Group_2613" data-name="Group 2613" transform="translate(-633 -862)">
    <rect id="Rectangle_40" data-name="Rectangle 40" width="100" height="100" transform="translate(633 862)" fill="#fff"/>
    <g id="Group_2654" data-name="Group 2654" transform="translate(590.508 841.008)">
      <g id="Background_Complete" data-name="Background Complete" transform="translate(44.109 42.047)">
        <g id="Group_2642" data-name="Group 2642" transform="translate(0 2.129)">
          <path id="Path_12039" data-name="Path 12039" d="M55.039,247.022a.455.455,0,0,1,.477,0q.06.036.122.07t.127.064a.454.454,0,0,1,.266.394l.018.587,1.91-.059-.018-.586a.454.454,0,0,1,.24-.412,2.659,2.659,0,0,0,.242-.15.454.454,0,0,1,.474-.03l.516.276.9-1.685-.516-.277a.453.453,0,0,1-.237-.412,2.657,2.657,0,0,0-.009-.285.454.454,0,0,1,.211-.428l.5-.309-1.007-1.624-.5.31a.453.453,0,0,1-.474,0q-.06-.036-.122-.07t-.126-.063a.454.454,0,0,1-.266-.4l-.018-.587-1.91.059.019.585a.454.454,0,0,1-.239.412,2.653,2.653,0,0,0-.243.15.454.454,0,0,1-.475.031l-.515-.276L53.48,244l.516.276a.454.454,0,0,1,.237.412,2.675,2.675,0,0,0,.009.286.454.454,0,0,1-.211.428l-.5.308,1.007,1.624Zm.479-3.016a1.565,1.565,0,1,1,.641,2.119A1.567,1.567,0,0,1,55.517,244.005Z" transform="translate(-53.48 -215.829)" fill="#ffebd9"/>
          <path id="Path_12040" data-name="Path 12040" d="M547.457,72.383a.319.319,0,0,1,.3-.156l.1,0,.1,0a.318.318,0,0,1,.294.155l.205.356,1.16-.669-.205-.356a.318.318,0,0,1,.012-.334,1.825,1.825,0,0,0,.1-.173.318.318,0,0,1,.283-.176h.41V69.692h-.41a.318.318,0,0,1-.283-.176,1.826,1.826,0,0,0-.1-.173.318.318,0,0,1-.012-.334l.205-.356-1.16-.669-.207.357a.317.317,0,0,1-.294.155l-.1,0-.1,0a.319.319,0,0,1-.3-.156l-.205-.357-1.16.669.205.355a.318.318,0,0,1-.011.334,1.921,1.921,0,0,0-.1.173.318.318,0,0,1-.283.176h-.41v1.339h.41a.318.318,0,0,1,.283.176,1.921,1.921,0,0,0,.1.173.318.318,0,0,1,.011.334l-.205.355,1.16.669Zm-.7-2.021a1.1,1.1,0,1,1,1.1,1.1A1.1,1.1,0,0,1,546.754,70.362Z" transform="translate(-473.062 -67.985)" fill="#ffebd9"/>
          <path id="Path_12041" data-name="Path 12041" d="M98.514,306.281a.319.319,0,0,1,.156.3c0,.033,0,.066,0,.1s0,.066,0,.1a.318.318,0,0,1-.155.295l-.356.205.669,1.159.356-.205a.318.318,0,0,1,.334.012,1.89,1.89,0,0,0,.173.1.318.318,0,0,1,.176.283v.41h1.339v-.41a.318.318,0,0,1,.176-.283,1.871,1.871,0,0,0,.173-.1.318.318,0,0,1,.334-.012l.356.205.669-1.159-.357-.207a.318.318,0,0,1-.155-.294c0-.033,0-.065,0-.1s0-.066,0-.1a.319.319,0,0,1,.156-.3l.357-.205-.669-1.16-.355.205a.318.318,0,0,1-.334-.011,1.852,1.852,0,0,0-.173-.1.318.318,0,0,1-.176-.283v-.41H99.866v.41a.318.318,0,0,1-.176.283,1.87,1.87,0,0,0-.173.1.318.318,0,0,1-.334.011l-.355-.205-.669,1.16Zm2.021-.7a1.1,1.1,0,1,1-1.1,1.1A1.1,1.1,0,0,1,100.535,305.578Z" transform="translate(-91.582 -269.526)" fill="#ffebd9"/>
        </g>
        <g id="Group_2643" data-name="Group 2643" transform="translate(21.701 3.602)">
          <circle id="Ellipse_63" data-name="Ellipse 63" cx="3.607" cy="3.607" r="3.607" transform="translate(33.668 46.383) rotate(-28.629)" fill="#ffebd9"/>
          <circle id="Ellipse_64" data-name="Ellipse 64" cx="3.607" cy="3.607" r="3.607" transform="translate(12.399)" fill="#ffebd9"/>
          <circle id="Ellipse_65" data-name="Ellipse 65" cx="1.538" cy="1.538" r="1.538" transform="matrix(0.156, -0.988, 0.988, 0.156, 0, 26.77)" fill="#ffebd9"/>
          <circle id="Ellipse_66" data-name="Ellipse 66" cx="1.538" cy="1.538" r="1.538" transform="translate(60.898 24.175)" fill="#ffebd9"/>
          <rect id="Rectangle_104" data-name="Rectangle 104" width="0.295" height="17.005" transform="translate(2.609 25.86) rotate(-88.674)" fill="#ffebd9"/>
          <rect id="Rectangle_105" data-name="Rectangle 105" width="0.294" height="25.272" transform="matrix(0.859, -0.512, 0.512, 0.859, 25.504, 26.183)" fill="#ffebd9"/>
          <rect id="Rectangle_106" data-name="Rectangle 106" width="0.294" height="19.188" transform="translate(16.705 4.643) rotate(-25.405)" fill="#ffebd9"/>
          <rect id="Rectangle_107" data-name="Rectangle 107" width="32.761" height="0.294" transform="translate(29.675 25.565)" fill="#ffebd9"/>
        </g>
        <g id="Group_2644" data-name="Group 2644" transform="translate(21.304 0)">
          <circle id="Ellipse_67" data-name="Ellipse 67" cx="1.026" cy="1.026" r="1.026" transform="translate(3.704)" fill="#ffebd9"/>
          <path id="Path_12042" data-name="Path 12042" d="M200.246,70a1.026,1.026,0,1,1-1.026-1.026A1.026,1.026,0,0,1,200.246,70Z" transform="translate(-198.195 -66.703)" fill="#ffebd9"/>
          <path id="Path_12043" data-name="Path 12043" d="M225.41,85.461a1.026,1.026,0,1,1-1.025-1.026A1.026,1.026,0,0,1,225.41,85.461Z" transform="translate(-219.655 -79.884)" fill="#ffebd9"/>
          <path id="Path_12044" data-name="Path 12044" d="M207.186,64.551l-3.9-2.518,3.9-2.4.154.251-3.505,2.153,3.508,2.264Z" transform="translate(-202.536 -58.736)" fill="#ffebd9"/>
        </g>
      </g>
      <g id="Connectivity" transform="translate(42.492 40.066)">
        <g id="Group_2650" data-name="Group 2650" transform="translate(0 0)">
          <rect id="Rectangle_108" data-name="Rectangle 108" width="0.589" height="17.962" transform="translate(23.467 20.906) rotate(-68.992)" fill="#fda14d"/>
          <rect id="Rectangle_109" data-name="Rectangle 109" width="10.636" height="0.589" transform="translate(32.196 40.878) rotate(-31.012)" fill="#fda14d"/>
          <rect id="Rectangle_110" data-name="Rectangle 110" width="0.589" height="11.376" transform="matrix(0.431, -0.902, 0.902, 0.431, 56.526, 37.403)" fill="#fda14d"/>
          <rect id="Rectangle_111" data-name="Rectangle 111" width="17.889" height="0.589" transform="translate(57.777 25.329) rotate(-20.467)" fill="#fda14d"/>
          <rect id="Rectangle_112" data-name="Rectangle 112" width="10.453" height="0.589" transform="translate(53.125 21.296) rotate(-57.857)" fill="#fda14d"/>
          <path id="Path_12056" data-name="Path 12056" d="M11.191,0A11.191,11.191,0,1,1,0,11.191,11.191,11.191,0,0,1,11.191,0Z" transform="translate(37.759 19.68)" fill="#fda14d"/>
          <circle id="Ellipse_69" data-name="Ellipse 69" cx="10.38" cy="10.38" r="10.38" transform="translate(0 23.662) rotate(-76.028)" fill="#fda14d"/>
          <path id="Path_12045" data-name="Path 12045" d="M58.314,91.784a12.02,12.02,0,1,1,12.02-12.02A12.033,12.033,0,0,1,58.314,91.784Zm0-23.451A11.431,11.431,0,1,0,69.745,79.764,11.444,11.444,0,0,0,58.314,68.333Z" transform="translate(-45.734 -63.669)" fill="#fda14d" stroke="rgba(0,0,0,0)" stroke-width="1"/>
          <path id="Path_12046" data-name="Path 12046" d="M552.427,82.177a12.02,12.02,0,1,1,12.02-12.02A12.033,12.033,0,0,1,552.427,82.177Zm0-23.451a11.431,11.431,0,1,0,11.431,11.431A11.444,11.444,0,0,0,552.427,58.726Z" transform="translate(-467.107 -55.477)" fill="#fda14d"/>
          <path id="Path_12047" data-name="Path 12047" d="M495.067,309.613a12.02,12.02,0,1,1,12.02-12.02A12.033,12.033,0,0,1,495.067,309.613Zm0-23.451A11.431,11.431,0,1,0,506.5,297.593,11.444,11.444,0,0,0,495.067,286.162Z" transform="translate(-418.191 -249.431)" fill="#fda14d"/>
          <path id="Path_12048" data-name="Path 12048" d="M124.323,302.893a12.02,12.02,0,1,1,12.02-12.02A12.034,12.034,0,0,1,124.323,302.893Zm0-23.451a11.431,11.431,0,1,0,11.431,11.431A11.444,11.444,0,0,0,124.323,279.442Z" transform="translate(-102.026 -243.7)" fill="#fda14d"/>
          <path id="Path_12055" data-name="Path 12055" d="M10.38,0A10.38,10.38,0,1,1,0,10.38,10.38,10.38,0,0,1,10.38,0Z" transform="translate(64.442 55.966) rotate(-77.114)" fill="#fda14d"/>
          <g id="Group_2645" data-name="Group 2645" transform="translate(70.64)">
            <circle id="Ellipse_71" data-name="Ellipse 71" cx="10.38" cy="10.38" r="10.38" transform="translate(0 14.68) rotate(-45)" fill="#ffc727"/>
            <circle id="Ellipse_72" data-name="Ellipse 72" cx="10.38" cy="10.38" r="10.38" transform="translate(0 14.68) rotate(-45)" fill="#ffebd9" opacity="0.5"/>
          </g>
          <g id="Group_2646" data-name="Group 2646" transform="translate(7.617 32.492)">
            <circle id="Ellipse_73" data-name="Ellipse 73" cx="10.38" cy="10.38" r="10.38" transform="translate(0 14.68) rotate(-45)" fill="#ffebd9"/>
            <circle id="Ellipse_74" data-name="Ellipse 74" cx="10.38" cy="10.38" r="10.38" transform="translate(0 14.68) rotate(-45)" fill="#ffebd9" opacity="0.5"/>
          </g>
          <g id="Group_2647" data-name="Group 2647" transform="translate(55.067 3.388)">
            <circle id="Ellipse_75" data-name="Ellipse 75" cx="4.995" cy="4.995" r="4.995" transform="matrix(0.226, -0.974, 0.974, 0.226, 0, 9.73)" fill="#fda14d"/>
            <circle id="Ellipse_76" data-name="Ellipse 76" cx="4.995" cy="4.995" r="4.995" transform="matrix(0.226, -0.974, 0.974, 0.226, 0, 9.73)" fill="#fda14d" opacity="0.1"/>
          </g>
          <g id="Group_2649" data-name="Group 2649" transform="translate(43.955 40.509)">
            <rect id="Rectangle_113" data-name="Rectangle 113" width="0.589" height="11.811" transform="translate(4.701)" fill="#fda14d"/>
            <g id="Group_2648" data-name="Group 2648" transform="translate(0 10.326)">
              <circle id="Ellipse_77" data-name="Ellipse 77" cx="4.995" cy="4.995" r="4.995" fill="#fda14d"/>
              <circle id="Ellipse_78" data-name="Ellipse 78" cx="4.995" cy="4.995" r="4.995" fill="#fda14d" opacity="0.1"/>
            </g>
          </g>
          <path id="Combined-Shape-path" d="M3.159,9.5V4.749H4.564L4.75,3.112H3.159l0-.819c0-.427.043-.656.7-.656H4.74V0H3.335C1.646,0,1.052.794,1.052,2.13v.983H0V4.75H1.052V9.5Z" transform="translate(10.205 11.344)" fill="#fafbff"/>
          <path id="Shape" d="M4.457,1.954l.02.318-.332-.039A5.465,5.465,0,0,1,.988.728L.551.307.438.618A1.827,1.827,0,0,0,.849,2.537c.265.272.206.311-.252.149a.8.8,0,0,0-.312-.071,2.264,2.264,0,0,0,.239.869,2.114,2.114,0,0,0,.909.83l.325.149-.385.006c-.371,0-.385.006-.345.143a1.983,1.983,0,0,0,1.24,1.063l.411.136-.358.207A3.828,3.828,0,0,1,.544,6.5,2.026,2.026,0,0,0,0,6.55a5.122,5.122,0,0,0,1.28.57,5.767,5.767,0,0,0,4.351-.48A5.691,5.691,0,0,0,7.84,4.125a6.506,6.506,0,0,0,.451-1.945c0-.3.02-.337.391-.694a4.281,4.281,0,0,0,.464-.5c.066-.123.06-.123-.279-.013-.564.194-.643.169-.365-.123A1.876,1.876,0,0,0,8.955.158c0-.019-.1.013-.212.071a3.774,3.774,0,0,1-.584.22L7.8.56,7.476.346A2.733,2.733,0,0,0,6.912.061,2.338,2.338,0,0,0,5.751.087,1.857,1.857,0,0,0,4.457,1.954Z" transform="translate(17.707 43.501)" fill="#fda14d"/>
          <g id="Group_2655" data-name="Group 2655" transform="translate(-6.358 -687.828)">
            <path id="Fill-1" d="M9.161,1.1A1.216,1.216,0,0,0,8.334.209,26.111,26.111,0,0,0,4.678,0,26.112,26.112,0,0,0,1.023.209,1.216,1.216,0,0,0,.2,1.1,13.959,13.959,0,0,0,0,3.509,13.959,13.959,0,0,0,.2,5.921a1.217,1.217,0,0,0,.827.886,26.119,26.119,0,0,0,3.655.209,26.118,26.118,0,0,0,3.655-.209,1.217,1.217,0,0,0,.827-.886,13.956,13.956,0,0,0,.2-2.413,13.955,13.955,0,0,0-.2-2.413" transform="translate(87 699)" fill="#fda14d"/>
            <path id="Fill-2" d="M0,3.226V0L2.581,1.613Z" transform="translate(90.685 700.79)" fill="#ffebd9"/>
          </g>
          <g id="Group_2656" data-name="Group 2656" transform="translate(-63.001 -651.074)">
            <path id="Combined-Shape" d="M3.5,7C2.368,7,2.232,7,1.775,6.975a2.368,2.368,0,0,1-.793-.147,1.322,1.322,0,0,1-.491-.319,1.319,1.319,0,0,1-.319-.491,2.357,2.357,0,0,1-.147-.793C0,4.779,0,4.645,0,3.5S0,2.22.025,1.775A2.363,2.363,0,0,1,.172.982,1.315,1.315,0,0,1,.491.491,1.331,1.331,0,0,1,.982.171,2.375,2.375,0,0,1,1.775.024C2.171.006,2.32,0,3.117,0H3.5c1.15,0,1.284,0,1.725.024a2.369,2.369,0,0,1,.793.147,1.319,1.319,0,0,1,.491.319,1.331,1.331,0,0,1,.32.491,2.373,2.373,0,0,1,.147.793C7,2.222,7,2.356,7,3.5S7,4.78,6.975,5.225a2.373,2.373,0,0,1-.147.793,1.416,1.416,0,0,1-.81.81,2.347,2.347,0,0,1-.793.147C4.769,7,4.632,7,3.5,7Zm0-5.691A2.193,2.193,0,1,0,5.692,3.5,2.2,2.2,0,0,0,3.5,1.309ZM5.779.71h0a.512.512,0,1,0,.514.512A.512.512,0,0,0,5.778.71Z" transform="translate(136.001 696)" fill="#fafbff"/>
            <path id="Shape-2" data-name="Shape" d="M1.5,0A1.5,1.5,0,1,1,0,1.5,1.5,1.5,0,0,1,1.5,0Z" transform="translate(138.015 698.015)" fill="#fafbff"/>
          </g>
        </g>
        <g id="Group_2653" data-name="Group 2653" transform="translate(41.463 7.346)">
          <g id="u5Zjqx" transform="translate(0 18.392)">
            <g id="Group_2651" data-name="Group 2651">
              <path id="Path_12049" data-name="Path 12049" d="M339.119,218.013l-.668.664c-.127.126-.252.253-.379.381a9.093,9.093,0,0,0-12.885.007c-.119-.124-.238-.252-.361-.377q-.328-.333-.659-.663a.078.078,0,0,0-.02-.011V218c.017-.013.034-.026.049-.04.281-.25.555-.509.845-.748a10.411,10.411,0,0,1,4.545-2.116c.428-.079.862-.119,1.294-.172.147-.018,1.1-.021,1.133-.019.294.022.589.035.883.067a10.026,10.026,0,0,1,2.376.568,10.382,10.382,0,0,1,1.608.752,10.132,10.132,0,0,1,1.534,1.075c.24.206.471.423.706.635Z" transform="translate(-324.146 -214.901)" fill="#fff"/>
              <path id="Path_12050" data-name="Path 12050" d="M339.5,238.382l-1.056-1.048a7.441,7.441,0,0,1,4.3-2.157,7.531,7.531,0,0,1,6.463,2.142l-1.06,1.056a6.114,6.114,0,0,0-8.643.007Z" transform="translate(-336.337 -232.125)" fill="#fff"/>
              <path id="Path_12051" data-name="Path 12051" d="M359.347,256.682l-1.051,1.05a3.124,3.124,0,0,0-4.428.006l-1.049-1.049A4.588,4.588,0,0,1,359.347,256.682Z" transform="translate(-348.598 -249.371)" fill="#fff"/>
            </g>
            <path id="Path_12052" data-name="Path 12052" d="M370.441,272.681a.949.949,0,1,1-.949-.949A.949.949,0,0,1,370.441,272.681Z" transform="translate(-362.007 -263.366)" fill="#fff"/>
          </g>
          <path id="Path_12053" data-name="Path 12053" d="M435.612,92.645a.822.822,0,0,0,.761.82v0h4.655a.966.966,0,0,0,.09-1.928,1.628,1.628,0,0,0-3.155-.509.954.954,0,0,0-.432-.1.966.966,0,0,0-.964.906.8.8,0,0,0-.134-.011A.822.822,0,0,0,435.612,92.645Z" transform="translate(-419.203 -89.964)" fill="#fff"/>
          <g id="Group_2652" data-name="Group 2652" transform="translate(4.22 45.999)">
            <path id="Path_12054" data-name="Path 12054" d="M356.132,402.431c-1.773,0-3.212,1.063-3.212,2.372a1.874,1.874,0,0,0,.319,1.035l-.43.964,1.107-.282a3.86,3.86,0,0,0,2.216.657c1.773,0,3.211-1.062,3.211-2.373S357.905,402.431,356.132,402.431Zm-1.49,2.7a.333.333,0,1,1,.333-.333A.334.334,0,0,1,354.642,405.136Zm1.49,0a.333.333,0,1,1,.333-.333A.333.333,0,0,1,356.132,405.136Zm1.488,0a.333.333,0,1,1,.333-.333A.334.334,0,0,1,357.62,405.136Z" transform="translate(-352.809 -402.431)" fill="#fff"/>
          </g>
        </g>
      </g>
    </g>
  </g>
</svg>
