<svg xmlns="http://www.w3.org/2000/svg" width="24" height="24" viewBox="0 0 24 24">
  <g id="Send" transform="translate(-0.249 -0.249)">
    <path id="Send-2" data-name="Send" d="M15.907,24a2.313,2.313,0,0,1-1.9-.98l-.109-.164L9.1,14.912l-7.969-4.9a2.379,2.379,0,0,1,.392-4.243L1.708,5.7,20.977.1a2.4,2.4,0,0,1,.667-.1,2.375,2.375,0,0,1,2.3,2.883l-.044.173L18.182,22.3A2.359,2.359,0,0,1,15.907,24Zm.839-17.7a.914.914,0,0,1,.546.179l.1.089a.929.929,0,0,1,.093,1.2l-.089.1-6.465,6.506L15.474,21.9a.505.505,0,0,0,.44.252.513.513,0,0,0,.46-.281l.038-.094L22.129,2.53a.527.527,0,0,0-.082-.47.52.52,0,0,0-.413-.211l-.053,0-.09.018L2.223,7.475a.516.516,0,0,0-.362.384.532.532,0,0,0,.155.514l.081.061,7.537,4.639,6.455-6.5A.919.919,0,0,1,16.745,6.3Z" transform="translate(0.249 0.249)" fill="#fff"/>
  </g>
</svg>
